<?xml version="1.0" encoding="utf-8" standalone="no"?>
<!DOCTYPE svg PUBLIC "-//W3C//DTD SVG 1.1//EN"
  "http://www.w3.org/Graphics/SVG/1.1/DTD/svg11.dtd">
<!-- Created with matplotlib (https://matplotlib.org/) -->
<svg height="720pt" version="1.1" viewBox="0 0 1440 720" width="1440pt" xmlns="http://www.w3.org/2000/svg" xmlns:xlink="http://www.w3.org/1999/xlink">
 <metadata>
  <rdf:RDF xmlns:cc="http://creativecommons.org/ns#" xmlns:dc="http://purl.org/dc/elements/1.1/" xmlns:rdf="http://www.w3.org/1999/02/22-rdf-syntax-ns#">
   <cc:Work>
    <dc:type rdf:resource="http://purl.org/dc/dcmitype/StillImage"/>
    <dc:date>2021-05-09T21:27:35.371824</dc:date>
    <dc:format>image/svg+xml</dc:format>
    <dc:creator>
     <cc:Agent>
      <dc:title>Matplotlib v3.3.2, https://matplotlib.org/</dc:title>
     </cc:Agent>
    </dc:creator>
   </cc:Work>
  </rdf:RDF>
 </metadata>
 <defs>
  <style type="text/css">*{stroke-linecap:butt;stroke-linejoin:round;}</style>
 </defs>
 <g id="figure_1">
  <g id="patch_1">
   <path d="M 0 720 
L 1440 720 
L 1440 0 
L 0 0 
z
" style="fill:none;"/>
  </g>
  <g id="axes_1">
   <g id="patch_2">
    <path d="M 180 630 
L 1296 630 
L 1296 86.4 
L 180 86.4 
z
" style="fill:#ffffff;"/>
   </g>
   <g id="patch_3">
    <path clip-path="url(#p12d2d8877d)" d="M 201.461538 630 
L 210.046154 630 
L 210.046154 112.285714 
L 201.461538 112.285714 
z
" style="fill:#1f77b4;"/>
   </g>
   <g id="patch_4">
    <path clip-path="url(#p12d2d8877d)" d="M 287.307692 630 
L 295.892308 630 
L 295.892308 299.147669 
L 287.307692 299.147669 
z
" style="fill:#1f77b4;"/>
   </g>
   <g id="patch_5">
    <path clip-path="url(#p12d2d8877d)" d="M 373.153846 630 
L 381.738462 630 
L 381.738462 239.568445 
L 373.153846 239.568445 
z
" style="fill:#1f77b4;"/>
   </g>
   <g id="patch_6">
    <path clip-path="url(#p12d2d8877d)" d="M 459 630 
L 467.584615 630 
L 467.584615 244.050833 
L 459 244.050833 
z
" style="fill:#1f77b4;"/>
   </g>
   <g id="patch_7">
    <path clip-path="url(#p12d2d8877d)" d="M 544.846154 630 
L 553.430769 630 
L 553.430769 226.744682 
L 544.846154 226.744682 
z
" style="fill:#1f77b4;"/>
   </g>
   <g id="patch_8">
    <path clip-path="url(#p12d2d8877d)" d="M 630.692308 630 
L 639.276923 630 
L 639.276923 266.034068 
L 630.692308 266.034068 
z
" style="fill:#1f77b4;"/>
   </g>
   <g id="patch_9">
    <path clip-path="url(#p12d2d8877d)" d="M 716.538462 630 
L 725.123077 630 
L 725.123077 162.825556 
L 716.538462 162.825556 
z
" style="fill:#1f77b4;"/>
   </g>
   <g id="patch_10">
    <path clip-path="url(#p12d2d8877d)" d="M 802.384615 630 
L 810.969231 630 
L 810.969231 313.109171 
L 802.384615 313.109171 
z
" style="fill:#1f77b4;"/>
   </g>
   <g id="patch_11">
    <path clip-path="url(#p12d2d8877d)" d="M 888.230769 630 
L 896.815385 630 
L 896.815385 273.386287 
L 888.230769 273.386287 
z
" style="fill:#1f77b4;"/>
   </g>
   <g id="patch_12">
    <path clip-path="url(#p12d2d8877d)" d="M 974.076923 630 
L 982.661538 630 
L 982.661538 630 
L 974.076923 630 
z
" style="fill:#1f77b4;"/>
   </g>
   <g id="patch_13">
    <path clip-path="url(#p12d2d8877d)" d="M 1059.923077 630 
L 1068.507692 630 
L 1068.507692 345.8202 
L 1059.923077 345.8202 
z
" style="fill:#1f77b4;"/>
   </g>
   <g id="patch_14">
    <path clip-path="url(#p12d2d8877d)" d="M 1145.769231 630 
L 1154.353846 630 
L 1154.353846 630 
L 1145.769231 630 
z
" style="fill:#1f77b4;"/>
   </g>
   <g id="patch_15">
    <path clip-path="url(#p12d2d8877d)" d="M 1231.615385 630 
L 1240.2 630 
L 1240.2 630 
L 1231.615385 630 
z
" style="fill:#1f77b4;"/>
   </g>
   <g id="patch_16">
    <path clip-path="url(#p12d2d8877d)" d="M 210.046154 630 
L 218.630769 630 
L 218.630769 357.699525 
L 210.046154 357.699525 
z
" style="fill:#ff7f0e;"/>
   </g>
   <g id="patch_17">
    <path clip-path="url(#p12d2d8877d)" d="M 295.892308 630 
L 304.476923 630 
L 304.476923 338.627236 
L 295.892308 338.627236 
z
" style="fill:#ff7f0e;"/>
   </g>
   <g id="patch_18">
    <path clip-path="url(#p12d2d8877d)" d="M 381.738462 630 
L 390.323077 630 
L 390.323077 357.70792 
L 381.738462 357.70792 
z
" style="fill:#ff7f0e;"/>
   </g>
   <g id="patch_19">
    <path clip-path="url(#p12d2d8877d)" d="M 467.584615 630 
L 476.169231 630 
L 476.169231 382.908455 
L 467.584615 382.908455 
z
" style="fill:#ff7f0e;"/>
   </g>
   <g id="patch_20">
    <path clip-path="url(#p12d2d8877d)" d="M 553.430769 630 
L 562.015385 630 
L 562.015385 365.507519 
L 553.430769 365.507519 
z
" style="fill:#ff7f0e;"/>
   </g>
   <g id="patch_21">
    <path clip-path="url(#p12d2d8877d)" d="M 639.276923 630 
L 647.861538 630 
L 647.861538 367.057948 
L 639.276923 367.057948 
z
" style="fill:#ff7f0e;"/>
   </g>
   <g id="patch_22">
    <path clip-path="url(#p12d2d8877d)" d="M 725.123077 630 
L 733.707692 630 
L 733.707692 423.03467 
L 725.123077 423.03467 
z
" style="fill:#ff7f0e;"/>
   </g>
   <g id="patch_23">
    <path clip-path="url(#p12d2d8877d)" d="M 810.969231 630 
L 819.553846 630 
L 819.553846 416.514239 
L 810.969231 416.514239 
z
" style="fill:#ff7f0e;"/>
   </g>
   <g id="patch_24">
    <path clip-path="url(#p12d2d8877d)" d="M 896.815385 630 
L 905.4 630 
L 905.4 361.549474 
L 896.815385 361.549474 
z
" style="fill:#ff7f0e;"/>
   </g>
   <g id="patch_25">
    <path clip-path="url(#p12d2d8877d)" d="M 982.661538 630 
L 991.246154 630 
L 991.246154 367.471099 
L 982.661538 367.471099 
z
" style="fill:#ff7f0e;"/>
   </g>
   <g id="patch_26">
    <path clip-path="url(#p12d2d8877d)" d="M 1068.507692 630 
L 1077.092308 630 
L 1077.092308 416.459781 
L 1068.507692 416.459781 
z
" style="fill:#ff7f0e;"/>
   </g>
   <g id="patch_27">
    <path clip-path="url(#p12d2d8877d)" d="M 1154.353846 630 
L 1162.938462 630 
L 1162.938462 374.858957 
L 1154.353846 374.858957 
z
" style="fill:#ff7f0e;"/>
   </g>
   <g id="patch_28">
    <path clip-path="url(#p12d2d8877d)" d="M 1240.2 630 
L 1248.784615 630 
L 1248.784615 347.496178 
L 1240.2 347.496178 
z
" style="fill:#ff7f0e;"/>
   </g>
   <g id="patch_29">
    <path clip-path="url(#p12d2d8877d)" d="M 218.630769 630 
L 227.215385 630 
L 227.215385 438.906563 
L 218.630769 438.906563 
z
" style="fill:#2ca02c;"/>
   </g>
   <g id="patch_30">
    <path clip-path="url(#p12d2d8877d)" d="M 304.476923 630 
L 313.061538 630 
L 313.061538 412.249344 
L 304.476923 412.249344 
z
" style="fill:#2ca02c;"/>
   </g>
   <g id="patch_31">
    <path clip-path="url(#p12d2d8877d)" d="M 390.323077 630 
L 398.907692 630 
L 398.907692 411.313676 
L 390.323077 411.313676 
z
" style="fill:#2ca02c;"/>
   </g>
   <g id="patch_32">
    <path clip-path="url(#p12d2d8877d)" d="M 476.169231 630 
L 484.753846 630 
L 484.753846 405.314762 
L 476.169231 405.314762 
z
" style="fill:#2ca02c;"/>
   </g>
   <g id="patch_33">
    <path clip-path="url(#p12d2d8877d)" d="M 562.015385 630 
L 570.6 630 
L 570.6 385.008395 
L 562.015385 385.008395 
z
" style="fill:#2ca02c;"/>
   </g>
   <g id="patch_34">
    <path clip-path="url(#p12d2d8877d)" d="M 647.861538 630 
L 656.446154 630 
L 656.446154 419.960021 
L 647.861538 419.960021 
z
" style="fill:#2ca02c;"/>
   </g>
   <g id="patch_35">
    <path clip-path="url(#p12d2d8877d)" d="M 733.707692 630 
L 742.292308 630 
L 742.292308 455.179443 
L 733.707692 455.179443 
z
" style="fill:#2ca02c;"/>
   </g>
   <g id="patch_36">
    <path clip-path="url(#p12d2d8877d)" d="M 819.553846 630 
L 828.138462 630 
L 828.138462 449.847597 
L 819.553846 449.847597 
z
" style="fill:#2ca02c;"/>
   </g>
   <g id="patch_37">
    <path clip-path="url(#p12d2d8877d)" d="M 905.4 630 
L 913.984615 630 
L 913.984615 425.056283 
L 905.4 425.056283 
z
" style="fill:#2ca02c;"/>
   </g>
   <g id="patch_38">
    <path clip-path="url(#p12d2d8877d)" d="M 991.246154 630 
L 999.830769 630 
L 999.830769 410.590727 
L 991.246154 410.590727 
z
" style="fill:#2ca02c;"/>
   </g>
   <g id="patch_39">
    <path clip-path="url(#p12d2d8877d)" d="M 1077.092308 630 
L 1085.676923 630 
L 1085.676923 441.238561 
L 1077.092308 441.238561 
z
" style="fill:#2ca02c;"/>
   </g>
   <g id="patch_40">
    <path clip-path="url(#p12d2d8877d)" d="M 1162.938462 630 
L 1171.523077 630 
L 1171.523077 432.819108 
L 1162.938462 432.819108 
z
" style="fill:#2ca02c;"/>
   </g>
   <g id="patch_41">
    <path clip-path="url(#p12d2d8877d)" d="M 1248.784615 630 
L 1257.369231 630 
L 1257.369231 427.612286 
L 1248.784615 427.612286 
z
" style="fill:#2ca02c;"/>
   </g>
   <g id="patch_42">
    <path clip-path="url(#p12d2d8877d)" d="M 227.215385 630 
L 235.8 630 
L 235.8 469.400313 
L 227.215385 469.400313 
z
" style="fill:#d62728;"/>
   </g>
   <g id="patch_43">
    <path clip-path="url(#p12d2d8877d)" d="M 313.061538 630 
L 321.646154 630 
L 321.646154 424.462808 
L 313.061538 424.462808 
z
" style="fill:#d62728;"/>
   </g>
   <g id="patch_44">
    <path clip-path="url(#p12d2d8877d)" d="M 398.907692 630 
L 407.492308 630 
L 407.492308 403.336958 
L 398.907692 403.336958 
z
" style="fill:#d62728;"/>
   </g>
   <g id="patch_45">
    <path clip-path="url(#p12d2d8877d)" d="M 484.753846 630 
L 493.338462 630 
L 493.338462 412.848205 
L 484.753846 412.848205 
z
" style="fill:#d62728;"/>
   </g>
   <g id="patch_46">
    <path clip-path="url(#p12d2d8877d)" d="M 570.6 630 
L 579.184615 630 
L 579.184615 436.713117 
L 570.6 436.713117 
z
" style="fill:#d62728;"/>
   </g>
   <g id="patch_47">
    <path clip-path="url(#p12d2d8877d)" d="M 656.446154 630 
L 665.030769 630 
L 665.030769 450.772093 
L 656.446154 450.772093 
z
" style="fill:#d62728;"/>
   </g>
   <g id="patch_48">
    <path clip-path="url(#p12d2d8877d)" d="M 742.292308 630 
L 750.876923 630 
L 750.876923 433.731481 
L 742.292308 433.731481 
z
" style="fill:#d62728;"/>
   </g>
   <g id="patch_49">
    <path clip-path="url(#p12d2d8877d)" d="M 828.138462 630 
L 836.723077 630 
L 836.723077 464.278514 
L 828.138462 464.278514 
z
" style="fill:#d62728;"/>
   </g>
   <g id="patch_50">
    <path clip-path="url(#p12d2d8877d)" d="M 913.984615 630 
L 922.569231 630 
L 922.569231 452.336921 
L 913.984615 452.336921 
z
" style="fill:#d62728;"/>
   </g>
   <g id="patch_51">
    <path clip-path="url(#p12d2d8877d)" d="M 999.830769 630 
L 1008.415385 630 
L 1008.415385 434.007198 
L 999.830769 434.007198 
z
" style="fill:#d62728;"/>
   </g>
   <g id="patch_52">
    <path clip-path="url(#p12d2d8877d)" d="M 1085.676923 630 
L 1094.261538 630 
L 1094.261538 474.123676 
L 1085.676923 474.123676 
z
" style="fill:#d62728;"/>
   </g>
   <g id="patch_53">
    <path clip-path="url(#p12d2d8877d)" d="M 1171.523077 630 
L 1180.107692 630 
L 1180.107692 432.037523 
L 1171.523077 432.037523 
z
" style="fill:#d62728;"/>
   </g>
   <g id="patch_54">
    <path clip-path="url(#p12d2d8877d)" d="M 1257.369231 630 
L 1265.953846 630 
L 1265.953846 630 
L 1257.369231 630 
z
" style="fill:#d62728;"/>
   </g>
   <g id="patch_55">
    <path clip-path="url(#p12d2d8877d)" d="M 235.8 630 
L 244.384615 630 
L 244.384615 227.674795 
L 235.8 227.674795 
z
" style="fill:#9467bd;"/>
   </g>
   <g id="patch_56">
    <path clip-path="url(#p12d2d8877d)" d="M 321.646154 630 
L 330.230769 630 
L 330.230769 147.395576 
L 321.646154 147.395576 
z
" style="fill:#9467bd;"/>
   </g>
   <g id="patch_57">
    <path clip-path="url(#p12d2d8877d)" d="M 407.492308 630 
L 416.076923 630 
L 416.076923 254.652499 
L 407.492308 254.652499 
z
" style="fill:#9467bd;"/>
   </g>
   <g id="patch_58">
    <path clip-path="url(#p12d2d8877d)" d="M 493.338462 630 
L 501.923077 630 
L 501.923077 246.374177 
L 493.338462 246.374177 
z
" style="fill:#9467bd;"/>
   </g>
   <g id="patch_59">
    <path clip-path="url(#p12d2d8877d)" d="M 579.184615 630 
L 587.769231 630 
L 587.769231 324.202841 
L 579.184615 324.202841 
z
" style="fill:#9467bd;"/>
   </g>
   <g id="patch_60">
    <path clip-path="url(#p12d2d8877d)" d="M 665.030769 630 
L 673.615385 630 
L 673.615385 317.176559 
L 665.030769 317.176559 
z
" style="fill:#9467bd;"/>
   </g>
   <g id="patch_61">
    <path clip-path="url(#p12d2d8877d)" d="M 750.876923 630 
L 759.461538 630 
L 759.461538 397.783737 
L 750.876923 397.783737 
z
" style="fill:#9467bd;"/>
   </g>
   <g id="patch_62">
    <path clip-path="url(#p12d2d8877d)" d="M 836.723077 630 
L 845.307692 630 
L 845.307692 310.431341 
L 836.723077 310.431341 
z
" style="fill:#9467bd;"/>
   </g>
   <g id="patch_63">
    <path clip-path="url(#p12d2d8877d)" d="M 922.569231 630 
L 931.153846 630 
L 931.153846 442.050143 
L 922.569231 442.050143 
z
" style="fill:#9467bd;"/>
   </g>
   <g id="patch_64">
    <path clip-path="url(#p12d2d8877d)" d="M 1008.415385 630 
L 1017 630 
L 1017 165.375836 
L 1008.415385 165.375836 
z
" style="fill:#9467bd;"/>
   </g>
   <g id="patch_65">
    <path clip-path="url(#p12d2d8877d)" d="M 1094.261538 630 
L 1102.846154 630 
L 1102.846154 338.879663 
L 1094.261538 338.879663 
z
" style="fill:#9467bd;"/>
   </g>
   <g id="patch_66">
    <path clip-path="url(#p12d2d8877d)" d="M 1180.107692 630 
L 1188.692308 630 
L 1188.692308 318.848506 
L 1180.107692 318.848506 
z
" style="fill:#9467bd;"/>
   </g>
   <g id="patch_67">
    <path clip-path="url(#p12d2d8877d)" d="M 1265.953846 630 
L 1274.538462 630 
L 1274.538462 630 
L 1265.953846 630 
z
" style="fill:#9467bd;"/>
   </g>
   <g id="matplotlib.axis_1">
    <g id="xtick_1">
     <g id="line2d_1">
      <defs>
       <path d="M 0 0 
L 0 3.5 
" id="m1b10816082" style="stroke:#000000;stroke-width:0.8;"/>
      </defs>
      <g>
       <use style="stroke:#000000;stroke-width:0.8;" x="222.923077" xlink:href="#m1b10816082" y="630"/>
      </g>
     </g>
     <g id="text_1">
      <!--  NL -->
      <g transform="translate(226.234327 656.4775)rotate(-90)scale(0.12 -0.12)">
       <defs>
        <path id="DejaVuSans-32"/>
        <path d="M 9.8125 72.90625 
L 23.09375 72.90625 
L 55.421875 11.921875 
L 55.421875 72.90625 
L 64.984375 72.90625 
L 64.984375 0 
L 51.703125 0 
L 19.390625 60.984375 
L 19.390625 0 
L 9.8125 0 
z
" id="DejaVuSans-78"/>
        <path d="M 9.8125 72.90625 
L 19.671875 72.90625 
L 19.671875 8.296875 
L 55.171875 8.296875 
L 55.171875 0 
L 9.8125 0 
z
" id="DejaVuSans-76"/>
       </defs>
       <use xlink:href="#DejaVuSans-32"/>
       <use x="31.787109" xlink:href="#DejaVuSans-78"/>
       <use x="106.591797" xlink:href="#DejaVuSans-76"/>
      </g>
     </g>
    </g>
    <g id="xtick_2">
     <g id="line2d_2">
      <g>
       <use style="stroke:#000000;stroke-width:0.8;" x="308.769231" xlink:href="#m1b10816082" y="630"/>
      </g>
     </g>
     <g id="text_2">
      <!--  NU -->
      <g transform="translate(312.080481 658.57375)rotate(-90)scale(0.12 -0.12)">
       <defs>
        <path d="M 8.6875 72.90625 
L 18.609375 72.90625 
L 18.609375 28.609375 
Q 18.609375 16.890625 22.84375 11.734375 
Q 27.09375 6.59375 36.625 6.59375 
Q 46.09375 6.59375 50.34375 11.734375 
Q 54.59375 16.890625 54.59375 28.609375 
L 54.59375 72.90625 
L 64.5 72.90625 
L 64.5 27.390625 
Q 64.5 13.140625 57.4375 5.859375 
Q 50.390625 -1.421875 36.625 -1.421875 
Q 22.796875 -1.421875 15.734375 5.859375 
Q 8.6875 13.140625 8.6875 27.390625 
z
" id="DejaVuSans-85"/>
       </defs>
       <use xlink:href="#DejaVuSans-32"/>
       <use x="31.787109" xlink:href="#DejaVuSans-78"/>
       <use x="106.591797" xlink:href="#DejaVuSans-85"/>
      </g>
     </g>
    </g>
    <g id="xtick_3">
     <g id="line2d_3">
      <g>
       <use style="stroke:#000000;stroke-width:0.8;" x="394.615385" xlink:href="#m1b10816082" y="630"/>
      </g>
     </g>
     <g id="text_3">
      <!--  BC -->
      <g transform="translate(397.926635 657.21625)rotate(-90)scale(0.12 -0.12)">
       <defs>
        <path d="M 19.671875 34.8125 
L 19.671875 8.109375 
L 35.5 8.109375 
Q 43.453125 8.109375 47.28125 11.40625 
Q 51.125 14.703125 51.125 21.484375 
Q 51.125 28.328125 47.28125 31.5625 
Q 43.453125 34.8125 35.5 34.8125 
z
M 19.671875 64.796875 
L 19.671875 42.828125 
L 34.28125 42.828125 
Q 41.5 42.828125 45.03125 45.53125 
Q 48.578125 48.25 48.578125 53.8125 
Q 48.578125 59.328125 45.03125 62.0625 
Q 41.5 64.796875 34.28125 64.796875 
z
M 9.8125 72.90625 
L 35.015625 72.90625 
Q 46.296875 72.90625 52.390625 68.21875 
Q 58.5 63.53125 58.5 54.890625 
Q 58.5 48.1875 55.375 44.234375 
Q 52.25 40.28125 46.1875 39.3125 
Q 53.46875 37.75 57.5 32.78125 
Q 61.53125 27.828125 61.53125 20.40625 
Q 61.53125 10.640625 54.890625 5.3125 
Q 48.25 0 35.984375 0 
L 9.8125 0 
z
" id="DejaVuSans-66"/>
        <path d="M 64.40625 67.28125 
L 64.40625 56.890625 
Q 59.421875 61.53125 53.78125 63.8125 
Q 48.140625 66.109375 41.796875 66.109375 
Q 29.296875 66.109375 22.65625 58.46875 
Q 16.015625 50.828125 16.015625 36.375 
Q 16.015625 21.96875 22.65625 14.328125 
Q 29.296875 6.6875 41.796875 6.6875 
Q 48.140625 6.6875 53.78125 8.984375 
Q 59.421875 11.28125 64.40625 15.921875 
L 64.40625 5.609375 
Q 59.234375 2.09375 53.4375 0.328125 
Q 47.65625 -1.421875 41.21875 -1.421875 
Q 24.65625 -1.421875 15.125 8.703125 
Q 5.609375 18.84375 5.609375 36.375 
Q 5.609375 53.953125 15.125 64.078125 
Q 24.65625 74.21875 41.21875 74.21875 
Q 47.75 74.21875 53.53125 72.484375 
Q 59.328125 70.75 64.40625 67.28125 
z
" id="DejaVuSans-67"/>
       </defs>
       <use xlink:href="#DejaVuSans-32"/>
       <use x="31.787109" xlink:href="#DejaVuSans-66"/>
       <use x="98.640625" xlink:href="#DejaVuSans-67"/>
      </g>
     </g>
    </g>
    <g id="xtick_4">
     <g id="line2d_4">
      <g>
       <use style="stroke:#000000;stroke-width:0.8;" x="480.461538" xlink:href="#m1b10816082" y="630"/>
      </g>
     </g>
     <g id="text_4">
      <!--  AB -->
      <g transform="translate(483.772788 657.255625)rotate(-90)scale(0.12 -0.12)">
       <defs>
        <path d="M 34.1875 63.1875 
L 20.796875 26.90625 
L 47.609375 26.90625 
z
M 28.609375 72.90625 
L 39.796875 72.90625 
L 67.578125 0 
L 57.328125 0 
L 50.6875 18.703125 
L 17.828125 18.703125 
L 11.1875 0 
L 0.78125 0 
z
" id="DejaVuSans-65"/>
       </defs>
       <use xlink:href="#DejaVuSans-32"/>
       <use x="31.787109" xlink:href="#DejaVuSans-65"/>
       <use x="100.195312" xlink:href="#DejaVuSans-66"/>
      </g>
     </g>
    </g>
    <g id="xtick_5">
     <g id="line2d_5">
      <g>
       <use style="stroke:#000000;stroke-width:0.8;" x="566.307692" xlink:href="#m1b10816082" y="630"/>
      </g>
     </g>
     <g id="text_5">
      <!--  NT -->
      <g transform="translate(569.618942 657.120625)rotate(-90)scale(0.12 -0.12)">
       <defs>
        <path d="M -0.296875 72.90625 
L 61.375 72.90625 
L 61.375 64.59375 
L 35.5 64.59375 
L 35.5 0 
L 25.59375 0 
L 25.59375 64.59375 
L -0.296875 64.59375 
z
" id="DejaVuSans-84"/>
       </defs>
       <use xlink:href="#DejaVuSans-32"/>
       <use x="31.787109" xlink:href="#DejaVuSans-78"/>
       <use x="106.591797" xlink:href="#DejaVuSans-84"/>
      </g>
     </g>
    </g>
    <g id="xtick_6">
     <g id="line2d_6">
      <g>
       <use style="stroke:#000000;stroke-width:0.8;" x="652.153846" xlink:href="#m1b10816082" y="630"/>
      </g>
     </g>
     <g id="text_6">
      <!--  MB -->
      <g transform="translate(655.465096 659.400625)rotate(-90)scale(0.12 -0.12)">
       <defs>
        <path d="M 9.8125 72.90625 
L 24.515625 72.90625 
L 43.109375 23.296875 
L 61.8125 72.90625 
L 76.515625 72.90625 
L 76.515625 0 
L 66.890625 0 
L 66.890625 64.015625 
L 48.09375 14.015625 
L 38.1875 14.015625 
L 19.390625 64.015625 
L 19.390625 0 
L 9.8125 0 
z
" id="DejaVuSans-77"/>
       </defs>
       <use xlink:href="#DejaVuSans-32"/>
       <use x="31.787109" xlink:href="#DejaVuSans-77"/>
       <use x="118.066406" xlink:href="#DejaVuSans-66"/>
      </g>
     </g>
    </g>
    <g id="xtick_7">
     <g id="line2d_7">
      <g>
       <use style="stroke:#000000;stroke-width:0.8;" x="738" xlink:href="#m1b10816082" y="630"/>
      </g>
     </g>
     <g id="text_7">
      <!--  PE -->
      <g transform="translate(741.31125 655.631875)rotate(-90)scale(0.12 -0.12)">
       <defs>
        <path d="M 19.671875 64.796875 
L 19.671875 37.40625 
L 32.078125 37.40625 
Q 38.96875 37.40625 42.71875 40.96875 
Q 46.484375 44.53125 46.484375 51.125 
Q 46.484375 57.671875 42.71875 61.234375 
Q 38.96875 64.796875 32.078125 64.796875 
z
M 9.8125 72.90625 
L 32.078125 72.90625 
Q 44.34375 72.90625 50.609375 67.359375 
Q 56.890625 61.8125 56.890625 51.125 
Q 56.890625 40.328125 50.609375 34.8125 
Q 44.34375 29.296875 32.078125 29.296875 
L 19.671875 29.296875 
L 19.671875 0 
L 9.8125 0 
z
" id="DejaVuSans-80"/>
        <path d="M 9.8125 72.90625 
L 55.90625 72.90625 
L 55.90625 64.59375 
L 19.671875 64.59375 
L 19.671875 43.015625 
L 54.390625 43.015625 
L 54.390625 34.71875 
L 19.671875 34.71875 
L 19.671875 8.296875 
L 56.78125 8.296875 
L 56.78125 0 
L 9.8125 0 
z
" id="DejaVuSans-69"/>
       </defs>
       <use xlink:href="#DejaVuSans-32"/>
       <use x="31.787109" xlink:href="#DejaVuSans-80"/>
       <use x="92.089844" xlink:href="#DejaVuSans-69"/>
      </g>
     </g>
    </g>
    <g id="xtick_8">
     <g id="line2d_8">
      <g>
       <use style="stroke:#000000;stroke-width:0.8;" x="823.846154" xlink:href="#m1b10816082" y="630"/>
      </g>
     </g>
     <g id="text_8">
      <!--  NS -->
      <g transform="translate(827.157404 657.409375)rotate(-90)scale(0.12 -0.12)">
       <defs>
        <path d="M 53.515625 70.515625 
L 53.515625 60.890625 
Q 47.90625 63.578125 42.921875 64.890625 
Q 37.9375 66.21875 33.296875 66.21875 
Q 25.25 66.21875 20.875 63.09375 
Q 16.5 59.96875 16.5 54.203125 
Q 16.5 49.359375 19.40625 46.890625 
Q 22.3125 44.4375 30.421875 42.921875 
L 36.375 41.703125 
Q 47.40625 39.59375 52.65625 34.296875 
Q 57.90625 29 57.90625 20.125 
Q 57.90625 9.515625 50.796875 4.046875 
Q 43.703125 -1.421875 29.984375 -1.421875 
Q 24.8125 -1.421875 18.96875 -0.25 
Q 13.140625 0.921875 6.890625 3.21875 
L 6.890625 13.375 
Q 12.890625 10.015625 18.65625 8.296875 
Q 24.421875 6.59375 29.984375 6.59375 
Q 38.421875 6.59375 43.015625 9.90625 
Q 47.609375 13.234375 47.609375 19.390625 
Q 47.609375 24.75 44.3125 27.78125 
Q 41.015625 30.8125 33.5 32.328125 
L 27.484375 33.5 
Q 16.453125 35.6875 11.515625 40.375 
Q 6.59375 45.0625 6.59375 53.421875 
Q 6.59375 63.09375 13.40625 68.65625 
Q 20.21875 74.21875 32.171875 74.21875 
Q 37.3125 74.21875 42.625 73.28125 
Q 47.953125 72.359375 53.515625 70.515625 
z
" id="DejaVuSans-83"/>
       </defs>
       <use xlink:href="#DejaVuSans-32"/>
       <use x="31.787109" xlink:href="#DejaVuSans-78"/>
       <use x="106.591797" xlink:href="#DejaVuSans-83"/>
      </g>
     </g>
    </g>
    <g id="xtick_9">
     <g id="line2d_9">
      <g>
       <use style="stroke:#000000;stroke-width:0.8;" x="909.692308" xlink:href="#m1b10816082" y="630"/>
      </g>
     </g>
     <g id="text_9">
      <!--  ON -->
      <g transform="translate(913.003558 659.2375)rotate(-90)scale(0.12 -0.12)">
       <defs>
        <path d="M 39.40625 66.21875 
Q 28.65625 66.21875 22.328125 58.203125 
Q 16.015625 50.203125 16.015625 36.375 
Q 16.015625 22.609375 22.328125 14.59375 
Q 28.65625 6.59375 39.40625 6.59375 
Q 50.140625 6.59375 56.421875 14.59375 
Q 62.703125 22.609375 62.703125 36.375 
Q 62.703125 50.203125 56.421875 58.203125 
Q 50.140625 66.21875 39.40625 66.21875 
z
M 39.40625 74.21875 
Q 54.734375 74.21875 63.90625 63.9375 
Q 73.09375 53.65625 73.09375 36.375 
Q 73.09375 19.140625 63.90625 8.859375 
Q 54.734375 -1.421875 39.40625 -1.421875 
Q 24.03125 -1.421875 14.8125 8.828125 
Q 5.609375 19.09375 5.609375 36.375 
Q 5.609375 53.65625 14.8125 63.9375 
Q 24.03125 74.21875 39.40625 74.21875 
z
" id="DejaVuSans-79"/>
       </defs>
       <use xlink:href="#DejaVuSans-32"/>
       <use x="31.787109" xlink:href="#DejaVuSans-79"/>
       <use x="110.498047" xlink:href="#DejaVuSans-78"/>
      </g>
     </g>
    </g>
    <g id="xtick_10">
     <g id="line2d_10">
      <g>
       <use style="stroke:#000000;stroke-width:0.8;" x="995.538462" xlink:href="#m1b10816082" y="630"/>
      </g>
     </g>
     <g id="text_10">
      <!--  SK -->
      <g transform="translate(998.849712 656.30125)rotate(-90)scale(0.12 -0.12)">
       <defs>
        <path d="M 9.8125 72.90625 
L 19.671875 72.90625 
L 19.671875 42.09375 
L 52.390625 72.90625 
L 65.09375 72.90625 
L 28.90625 38.921875 
L 67.671875 0 
L 54.6875 0 
L 19.671875 35.109375 
L 19.671875 0 
L 9.8125 0 
z
" id="DejaVuSans-75"/>
       </defs>
       <use xlink:href="#DejaVuSans-32"/>
       <use x="31.787109" xlink:href="#DejaVuSans-83"/>
       <use x="95.263672" xlink:href="#DejaVuSans-75"/>
      </g>
     </g>
    </g>
    <g id="xtick_11">
     <g id="line2d_11">
      <g>
       <use style="stroke:#000000;stroke-width:0.8;" x="1081.384615" xlink:href="#m1b10816082" y="630"/>
      </g>
     </g>
     <g id="text_11">
      <!--  NB -->
      <g transform="translate(1084.695865 658.024375)rotate(-90)scale(0.12 -0.12)">
       <use xlink:href="#DejaVuSans-32"/>
       <use x="31.787109" xlink:href="#DejaVuSans-78"/>
       <use x="106.591797" xlink:href="#DejaVuSans-66"/>
      </g>
     </g>
    </g>
    <g id="xtick_12">
     <g id="line2d_12">
      <g>
       <use style="stroke:#000000;stroke-width:0.8;" x="1167.230769" xlink:href="#m1b10816082" y="630"/>
      </g>
     </g>
     <g id="text_12">
      <!--  QC -->
      <g transform="translate(1170.542019 658.639375)rotate(-90)scale(0.12 -0.12)">
       <defs>
        <path d="M 39.40625 66.21875 
Q 28.65625 66.21875 22.328125 58.203125 
Q 16.015625 50.203125 16.015625 36.375 
Q 16.015625 22.609375 22.328125 14.59375 
Q 28.65625 6.59375 39.40625 6.59375 
Q 50.140625 6.59375 56.421875 14.59375 
Q 62.703125 22.609375 62.703125 36.375 
Q 62.703125 50.203125 56.421875 58.203125 
Q 50.140625 66.21875 39.40625 66.21875 
z
M 53.21875 1.3125 
L 66.21875 -12.890625 
L 54.296875 -12.890625 
L 43.5 -1.21875 
Q 41.890625 -1.3125 41.03125 -1.359375 
Q 40.1875 -1.421875 39.40625 -1.421875 
Q 24.03125 -1.421875 14.8125 8.859375 
Q 5.609375 19.140625 5.609375 36.375 
Q 5.609375 53.65625 14.8125 63.9375 
Q 24.03125 74.21875 39.40625 74.21875 
Q 54.734375 74.21875 63.90625 63.9375 
Q 73.09375 53.65625 73.09375 36.375 
Q 73.09375 23.6875 67.984375 14.640625 
Q 62.890625 5.609375 53.21875 1.3125 
z
" id="DejaVuSans-81"/>
       </defs>
       <use xlink:href="#DejaVuSans-32"/>
       <use x="31.787109" xlink:href="#DejaVuSans-81"/>
       <use x="110.498047" xlink:href="#DejaVuSans-67"/>
      </g>
     </g>
    </g>
    <g id="xtick_13">
     <g id="line2d_13">
      <g>
       <use style="stroke:#000000;stroke-width:0.8;" x="1253.076923" xlink:href="#m1b10816082" y="630"/>
      </g>
     </g>
     <g id="text_13">
      <!--  YT -->
      <g transform="translate(1256.388173 655.4725)rotate(-90)scale(0.12 -0.12)">
       <defs>
        <path d="M -0.203125 72.90625 
L 10.40625 72.90625 
L 30.609375 42.921875 
L 50.6875 72.90625 
L 61.28125 72.90625 
L 35.5 34.71875 
L 35.5 0 
L 25.59375 0 
L 25.59375 34.71875 
z
" id="DejaVuSans-89"/>
       </defs>
       <use xlink:href="#DejaVuSans-32"/>
       <use x="31.787109" xlink:href="#DejaVuSans-89"/>
       <use x="92.871094" xlink:href="#DejaVuSans-84"/>
      </g>
     </g>
    </g>
    <g id="text_14">
     <!-- Provinces -->
     <g transform="translate(699.79625 675.558125)scale(0.16 -0.16)">
      <defs>
       <path d="M 41.109375 46.296875 
Q 39.59375 47.171875 37.8125 47.578125 
Q 36.03125 48 33.890625 48 
Q 26.265625 48 22.1875 43.046875 
Q 18.109375 38.09375 18.109375 28.8125 
L 18.109375 0 
L 9.078125 0 
L 9.078125 54.6875 
L 18.109375 54.6875 
L 18.109375 46.1875 
Q 20.953125 51.171875 25.484375 53.578125 
Q 30.03125 56 36.53125 56 
Q 37.453125 56 38.578125 55.875 
Q 39.703125 55.765625 41.0625 55.515625 
z
" id="DejaVuSans-114"/>
       <path d="M 30.609375 48.390625 
Q 23.390625 48.390625 19.1875 42.75 
Q 14.984375 37.109375 14.984375 27.296875 
Q 14.984375 17.484375 19.15625 11.84375 
Q 23.34375 6.203125 30.609375 6.203125 
Q 37.796875 6.203125 41.984375 11.859375 
Q 46.1875 17.53125 46.1875 27.296875 
Q 46.1875 37.015625 41.984375 42.703125 
Q 37.796875 48.390625 30.609375 48.390625 
z
M 30.609375 56 
Q 42.328125 56 49.015625 48.375 
Q 55.71875 40.765625 55.71875 27.296875 
Q 55.71875 13.875 49.015625 6.21875 
Q 42.328125 -1.421875 30.609375 -1.421875 
Q 18.84375 -1.421875 12.171875 6.21875 
Q 5.515625 13.875 5.515625 27.296875 
Q 5.515625 40.765625 12.171875 48.375 
Q 18.84375 56 30.609375 56 
z
" id="DejaVuSans-111"/>
       <path d="M 2.984375 54.6875 
L 12.5 54.6875 
L 29.59375 8.796875 
L 46.6875 54.6875 
L 56.203125 54.6875 
L 35.6875 0 
L 23.484375 0 
z
" id="DejaVuSans-118"/>
       <path d="M 9.421875 54.6875 
L 18.40625 54.6875 
L 18.40625 0 
L 9.421875 0 
z
M 9.421875 75.984375 
L 18.40625 75.984375 
L 18.40625 64.59375 
L 9.421875 64.59375 
z
" id="DejaVuSans-105"/>
       <path d="M 54.890625 33.015625 
L 54.890625 0 
L 45.90625 0 
L 45.90625 32.71875 
Q 45.90625 40.484375 42.875 44.328125 
Q 39.84375 48.1875 33.796875 48.1875 
Q 26.515625 48.1875 22.3125 43.546875 
Q 18.109375 38.921875 18.109375 30.90625 
L 18.109375 0 
L 9.078125 0 
L 9.078125 54.6875 
L 18.109375 54.6875 
L 18.109375 46.1875 
Q 21.34375 51.125 25.703125 53.5625 
Q 30.078125 56 35.796875 56 
Q 45.21875 56 50.046875 50.171875 
Q 54.890625 44.34375 54.890625 33.015625 
z
" id="DejaVuSans-110"/>
       <path d="M 48.78125 52.59375 
L 48.78125 44.1875 
Q 44.96875 46.296875 41.140625 47.34375 
Q 37.3125 48.390625 33.40625 48.390625 
Q 24.65625 48.390625 19.8125 42.84375 
Q 14.984375 37.3125 14.984375 27.296875 
Q 14.984375 17.28125 19.8125 11.734375 
Q 24.65625 6.203125 33.40625 6.203125 
Q 37.3125 6.203125 41.140625 7.25 
Q 44.96875 8.296875 48.78125 10.40625 
L 48.78125 2.09375 
Q 45.015625 0.34375 40.984375 -0.53125 
Q 36.96875 -1.421875 32.421875 -1.421875 
Q 20.0625 -1.421875 12.78125 6.34375 
Q 5.515625 14.109375 5.515625 27.296875 
Q 5.515625 40.671875 12.859375 48.328125 
Q 20.21875 56 33.015625 56 
Q 37.15625 56 41.109375 55.140625 
Q 45.0625 54.296875 48.78125 52.59375 
z
" id="DejaVuSans-99"/>
       <path d="M 56.203125 29.59375 
L 56.203125 25.203125 
L 14.890625 25.203125 
Q 15.484375 15.921875 20.484375 11.0625 
Q 25.484375 6.203125 34.421875 6.203125 
Q 39.59375 6.203125 44.453125 7.46875 
Q 49.3125 8.734375 54.109375 11.28125 
L 54.109375 2.78125 
Q 49.265625 0.734375 44.1875 -0.34375 
Q 39.109375 -1.421875 33.890625 -1.421875 
Q 20.796875 -1.421875 13.15625 6.1875 
Q 5.515625 13.8125 5.515625 26.8125 
Q 5.515625 40.234375 12.765625 48.109375 
Q 20.015625 56 32.328125 56 
Q 43.359375 56 49.78125 48.890625 
Q 56.203125 41.796875 56.203125 29.59375 
z
M 47.21875 32.234375 
Q 47.125 39.59375 43.09375 43.984375 
Q 39.0625 48.390625 32.421875 48.390625 
Q 24.90625 48.390625 20.390625 44.140625 
Q 15.875 39.890625 15.1875 32.171875 
z
" id="DejaVuSans-101"/>
       <path d="M 44.28125 53.078125 
L 44.28125 44.578125 
Q 40.484375 46.53125 36.375 47.5 
Q 32.28125 48.484375 27.875 48.484375 
Q 21.1875 48.484375 17.84375 46.4375 
Q 14.5 44.390625 14.5 40.28125 
Q 14.5 37.15625 16.890625 35.375 
Q 19.28125 33.59375 26.515625 31.984375 
L 29.59375 31.296875 
Q 39.15625 29.25 43.1875 25.515625 
Q 47.21875 21.78125 47.21875 15.09375 
Q 47.21875 7.46875 41.1875 3.015625 
Q 35.15625 -1.421875 24.609375 -1.421875 
Q 20.21875 -1.421875 15.453125 -0.5625 
Q 10.6875 0.296875 5.421875 2 
L 5.421875 11.28125 
Q 10.40625 8.6875 15.234375 7.390625 
Q 20.0625 6.109375 24.8125 6.109375 
Q 31.15625 6.109375 34.5625 8.28125 
Q 37.984375 10.453125 37.984375 14.40625 
Q 37.984375 18.0625 35.515625 20.015625 
Q 33.0625 21.96875 24.703125 23.78125 
L 21.578125 24.515625 
Q 13.234375 26.265625 9.515625 29.90625 
Q 5.8125 33.546875 5.8125 39.890625 
Q 5.8125 47.609375 11.28125 51.796875 
Q 16.75 56 26.8125 56 
Q 31.78125 56 36.171875 55.265625 
Q 40.578125 54.546875 44.28125 53.078125 
z
" id="DejaVuSans-115"/>
      </defs>
      <use xlink:href="#DejaVuSans-80"/>
      <use x="58.552734" xlink:href="#DejaVuSans-114"/>
      <use x="97.416016" xlink:href="#DejaVuSans-111"/>
      <use x="158.597656" xlink:href="#DejaVuSans-118"/>
      <use x="217.777344" xlink:href="#DejaVuSans-105"/>
      <use x="245.560547" xlink:href="#DejaVuSans-110"/>
      <use x="308.939453" xlink:href="#DejaVuSans-99"/>
      <use x="363.919922" xlink:href="#DejaVuSans-101"/>
      <use x="425.443359" xlink:href="#DejaVuSans-115"/>
     </g>
    </g>
   </g>
   <g id="matplotlib.axis_2">
    <g id="ytick_1">
     <g id="line2d_14">
      <defs>
       <path d="M 0 0 
L -3.5 0 
" id="mf2efa2ecf1" style="stroke:#000000;stroke-width:0.8;"/>
      </defs>
      <g>
       <use style="stroke:#000000;stroke-width:0.8;" x="180" xlink:href="#mf2efa2ecf1" y="630"/>
      </g>
     </g>
     <g id="text_15">
      <!-- 0 -->
      <g transform="translate(165.365 634.559062)scale(0.12 -0.12)">
       <defs>
        <path d="M 31.78125 66.40625 
Q 24.171875 66.40625 20.328125 58.90625 
Q 16.5 51.421875 16.5 36.375 
Q 16.5 21.390625 20.328125 13.890625 
Q 24.171875 6.390625 31.78125 6.390625 
Q 39.453125 6.390625 43.28125 13.890625 
Q 47.125 21.390625 47.125 36.375 
Q 47.125 51.421875 43.28125 58.90625 
Q 39.453125 66.40625 31.78125 66.40625 
z
M 31.78125 74.21875 
Q 44.046875 74.21875 50.515625 64.515625 
Q 56.984375 54.828125 56.984375 36.375 
Q 56.984375 17.96875 50.515625 8.265625 
Q 44.046875 -1.421875 31.78125 -1.421875 
Q 19.53125 -1.421875 13.0625 8.265625 
Q 6.59375 17.96875 6.59375 36.375 
Q 6.59375 54.828125 13.0625 64.515625 
Q 19.53125 74.21875 31.78125 74.21875 
z
" id="DejaVuSans-48"/>
       </defs>
       <use xlink:href="#DejaVuSans-48"/>
      </g>
     </g>
    </g>
    <g id="ytick_2">
     <g id="line2d_15">
      <g>
       <use style="stroke:#000000;stroke-width:0.8;" x="180" xlink:href="#mf2efa2ecf1" y="514.604846"/>
      </g>
     </g>
     <g id="text_16">
      <!-- 10 -->
      <g transform="translate(157.73 519.163908)scale(0.12 -0.12)">
       <defs>
        <path d="M 12.40625 8.296875 
L 28.515625 8.296875 
L 28.515625 63.921875 
L 10.984375 60.40625 
L 10.984375 69.390625 
L 28.421875 72.90625 
L 38.28125 72.90625 
L 38.28125 8.296875 
L 54.390625 8.296875 
L 54.390625 0 
L 12.40625 0 
z
" id="DejaVuSans-49"/>
       </defs>
       <use xlink:href="#DejaVuSans-49"/>
       <use x="63.623047" xlink:href="#DejaVuSans-48"/>
      </g>
     </g>
    </g>
    <g id="ytick_3">
     <g id="line2d_16">
      <g>
       <use style="stroke:#000000;stroke-width:0.8;" x="180" xlink:href="#mf2efa2ecf1" y="399.209692"/>
      </g>
     </g>
     <g id="text_17">
      <!-- 20 -->
      <g transform="translate(157.73 403.768754)scale(0.12 -0.12)">
       <defs>
        <path d="M 19.1875 8.296875 
L 53.609375 8.296875 
L 53.609375 0 
L 7.328125 0 
L 7.328125 8.296875 
Q 12.9375 14.109375 22.625 23.890625 
Q 32.328125 33.6875 34.8125 36.53125 
Q 39.546875 41.84375 41.421875 45.53125 
Q 43.3125 49.21875 43.3125 52.78125 
Q 43.3125 58.59375 39.234375 62.25 
Q 35.15625 65.921875 28.609375 65.921875 
Q 23.96875 65.921875 18.8125 64.3125 
Q 13.671875 62.703125 7.8125 59.421875 
L 7.8125 69.390625 
Q 13.765625 71.78125 18.9375 73 
Q 24.125 74.21875 28.421875 74.21875 
Q 39.75 74.21875 46.484375 68.546875 
Q 53.21875 62.890625 53.21875 53.421875 
Q 53.21875 48.921875 51.53125 44.890625 
Q 49.859375 40.875 45.40625 35.40625 
Q 44.1875 33.984375 37.640625 27.21875 
Q 31.109375 20.453125 19.1875 8.296875 
z
" id="DejaVuSans-50"/>
       </defs>
       <use xlink:href="#DejaVuSans-50"/>
       <use x="63.623047" xlink:href="#DejaVuSans-48"/>
      </g>
     </g>
    </g>
    <g id="ytick_4">
     <g id="line2d_17">
      <g>
       <use style="stroke:#000000;stroke-width:0.8;" x="180" xlink:href="#mf2efa2ecf1" y="283.814538"/>
      </g>
     </g>
     <g id="text_18">
      <!-- 30 -->
      <g transform="translate(157.73 288.3736)scale(0.12 -0.12)">
       <defs>
        <path d="M 40.578125 39.3125 
Q 47.65625 37.796875 51.625 33 
Q 55.609375 28.21875 55.609375 21.1875 
Q 55.609375 10.40625 48.1875 4.484375 
Q 40.765625 -1.421875 27.09375 -1.421875 
Q 22.515625 -1.421875 17.65625 -0.515625 
Q 12.796875 0.390625 7.625 2.203125 
L 7.625 11.71875 
Q 11.71875 9.328125 16.59375 8.109375 
Q 21.484375 6.890625 26.8125 6.890625 
Q 36.078125 6.890625 40.9375 10.546875 
Q 45.796875 14.203125 45.796875 21.1875 
Q 45.796875 27.640625 41.28125 31.265625 
Q 36.765625 34.90625 28.71875 34.90625 
L 20.21875 34.90625 
L 20.21875 43.015625 
L 29.109375 43.015625 
Q 36.375 43.015625 40.234375 45.921875 
Q 44.09375 48.828125 44.09375 54.296875 
Q 44.09375 59.90625 40.109375 62.90625 
Q 36.140625 65.921875 28.71875 65.921875 
Q 24.65625 65.921875 20.015625 65.03125 
Q 15.375 64.15625 9.8125 62.3125 
L 9.8125 71.09375 
Q 15.4375 72.65625 20.34375 73.4375 
Q 25.25 74.21875 29.59375 74.21875 
Q 40.828125 74.21875 47.359375 69.109375 
Q 53.90625 64.015625 53.90625 55.328125 
Q 53.90625 49.265625 50.4375 45.09375 
Q 46.96875 40.921875 40.578125 39.3125 
z
" id="DejaVuSans-51"/>
       </defs>
       <use xlink:href="#DejaVuSans-51"/>
       <use x="63.623047" xlink:href="#DejaVuSans-48"/>
      </g>
     </g>
    </g>
    <g id="ytick_5">
     <g id="line2d_18">
      <g>
       <use style="stroke:#000000;stroke-width:0.8;" x="180" xlink:href="#mf2efa2ecf1" y="168.419383"/>
      </g>
     </g>
     <g id="text_19">
      <!-- 40 -->
      <g transform="translate(157.73 172.978446)scale(0.12 -0.12)">
       <defs>
        <path d="M 37.796875 64.3125 
L 12.890625 25.390625 
L 37.796875 25.390625 
z
M 35.203125 72.90625 
L 47.609375 72.90625 
L 47.609375 25.390625 
L 58.015625 25.390625 
L 58.015625 17.1875 
L 47.609375 17.1875 
L 47.609375 0 
L 37.796875 0 
L 37.796875 17.1875 
L 4.890625 17.1875 
L 4.890625 26.703125 
z
" id="DejaVuSans-52"/>
       </defs>
       <use xlink:href="#DejaVuSans-52"/>
       <use x="63.623047" xlink:href="#DejaVuSans-48"/>
      </g>
     </g>
    </g>
    <g id="text_20">
     <!-- Average Salary (CAD) -->
     <g transform="translate(150.4025 444.72875)rotate(-90)scale(0.16 -0.16)">
      <defs>
       <path d="M 34.28125 27.484375 
Q 23.390625 27.484375 19.1875 25 
Q 14.984375 22.515625 14.984375 16.5 
Q 14.984375 11.71875 18.140625 8.90625 
Q 21.296875 6.109375 26.703125 6.109375 
Q 34.1875 6.109375 38.703125 11.40625 
Q 43.21875 16.703125 43.21875 25.484375 
L 43.21875 27.484375 
z
M 52.203125 31.203125 
L 52.203125 0 
L 43.21875 0 
L 43.21875 8.296875 
Q 40.140625 3.328125 35.546875 0.953125 
Q 30.953125 -1.421875 24.3125 -1.421875 
Q 15.921875 -1.421875 10.953125 3.296875 
Q 6 8.015625 6 15.921875 
Q 6 25.140625 12.171875 29.828125 
Q 18.359375 34.515625 30.609375 34.515625 
L 43.21875 34.515625 
L 43.21875 35.40625 
Q 43.21875 41.609375 39.140625 45 
Q 35.0625 48.390625 27.6875 48.390625 
Q 23 48.390625 18.546875 47.265625 
Q 14.109375 46.140625 10.015625 43.890625 
L 10.015625 52.203125 
Q 14.9375 54.109375 19.578125 55.046875 
Q 24.21875 56 28.609375 56 
Q 40.484375 56 46.34375 49.84375 
Q 52.203125 43.703125 52.203125 31.203125 
z
" id="DejaVuSans-97"/>
       <path d="M 45.40625 27.984375 
Q 45.40625 37.75 41.375 43.109375 
Q 37.359375 48.484375 30.078125 48.484375 
Q 22.859375 48.484375 18.828125 43.109375 
Q 14.796875 37.75 14.796875 27.984375 
Q 14.796875 18.265625 18.828125 12.890625 
Q 22.859375 7.515625 30.078125 7.515625 
Q 37.359375 7.515625 41.375 12.890625 
Q 45.40625 18.265625 45.40625 27.984375 
z
M 54.390625 6.78125 
Q 54.390625 -7.171875 48.1875 -13.984375 
Q 42 -20.796875 29.203125 -20.796875 
Q 24.46875 -20.796875 20.265625 -20.09375 
Q 16.0625 -19.390625 12.109375 -17.921875 
L 12.109375 -9.1875 
Q 16.0625 -11.328125 19.921875 -12.34375 
Q 23.78125 -13.375 27.78125 -13.375 
Q 36.625 -13.375 41.015625 -8.765625 
Q 45.40625 -4.15625 45.40625 5.171875 
L 45.40625 9.625 
Q 42.625 4.78125 38.28125 2.390625 
Q 33.9375 0 27.875 0 
Q 17.828125 0 11.671875 7.65625 
Q 5.515625 15.328125 5.515625 27.984375 
Q 5.515625 40.671875 11.671875 48.328125 
Q 17.828125 56 27.875 56 
Q 33.9375 56 38.28125 53.609375 
Q 42.625 51.21875 45.40625 46.390625 
L 45.40625 54.6875 
L 54.390625 54.6875 
z
" id="DejaVuSans-103"/>
       <path d="M 9.421875 75.984375 
L 18.40625 75.984375 
L 18.40625 0 
L 9.421875 0 
z
" id="DejaVuSans-108"/>
       <path d="M 32.171875 -5.078125 
Q 28.375 -14.84375 24.75 -17.8125 
Q 21.140625 -20.796875 15.09375 -20.796875 
L 7.90625 -20.796875 
L 7.90625 -13.28125 
L 13.1875 -13.28125 
Q 16.890625 -13.28125 18.9375 -11.515625 
Q 21 -9.765625 23.484375 -3.21875 
L 25.09375 0.875 
L 2.984375 54.6875 
L 12.5 54.6875 
L 29.59375 11.921875 
L 46.6875 54.6875 
L 56.203125 54.6875 
z
" id="DejaVuSans-121"/>
       <path d="M 31 75.875 
Q 24.46875 64.65625 21.28125 53.65625 
Q 18.109375 42.671875 18.109375 31.390625 
Q 18.109375 20.125 21.3125 9.0625 
Q 24.515625 -2 31 -13.1875 
L 23.1875 -13.1875 
Q 15.875 -1.703125 12.234375 9.375 
Q 8.59375 20.453125 8.59375 31.390625 
Q 8.59375 42.28125 12.203125 53.3125 
Q 15.828125 64.359375 23.1875 75.875 
z
" id="DejaVuSans-40"/>
       <path d="M 19.671875 64.796875 
L 19.671875 8.109375 
L 31.59375 8.109375 
Q 46.6875 8.109375 53.6875 14.9375 
Q 60.6875 21.78125 60.6875 36.53125 
Q 60.6875 51.171875 53.6875 57.984375 
Q 46.6875 64.796875 31.59375 64.796875 
z
M 9.8125 72.90625 
L 30.078125 72.90625 
Q 51.265625 72.90625 61.171875 64.09375 
Q 71.09375 55.28125 71.09375 36.53125 
Q 71.09375 17.671875 61.125 8.828125 
Q 51.171875 0 30.078125 0 
L 9.8125 0 
z
" id="DejaVuSans-68"/>
       <path d="M 8.015625 75.875 
L 15.828125 75.875 
Q 23.140625 64.359375 26.78125 53.3125 
Q 30.421875 42.28125 30.421875 31.390625 
Q 30.421875 20.453125 26.78125 9.375 
Q 23.140625 -1.703125 15.828125 -13.1875 
L 8.015625 -13.1875 
Q 14.5 -2 17.703125 9.0625 
Q 20.90625 20.125 20.90625 31.390625 
Q 20.90625 42.671875 17.703125 53.65625 
Q 14.5 64.65625 8.015625 75.875 
z
" id="DejaVuSans-41"/>
      </defs>
      <use xlink:href="#DejaVuSans-65"/>
      <use x="62.533203" xlink:href="#DejaVuSans-118"/>
      <use x="121.712891" xlink:href="#DejaVuSans-101"/>
      <use x="183.236328" xlink:href="#DejaVuSans-114"/>
      <use x="224.349609" xlink:href="#DejaVuSans-97"/>
      <use x="285.628906" xlink:href="#DejaVuSans-103"/>
      <use x="349.105469" xlink:href="#DejaVuSans-101"/>
      <use x="410.628906" xlink:href="#DejaVuSans-32"/>
      <use x="442.416016" xlink:href="#DejaVuSans-83"/>
      <use x="505.892578" xlink:href="#DejaVuSans-97"/>
      <use x="567.171875" xlink:href="#DejaVuSans-108"/>
      <use x="594.955078" xlink:href="#DejaVuSans-97"/>
      <use x="656.234375" xlink:href="#DejaVuSans-114"/>
      <use x="697.347656" xlink:href="#DejaVuSans-121"/>
      <use x="756.527344" xlink:href="#DejaVuSans-32"/>
      <use x="788.314453" xlink:href="#DejaVuSans-40"/>
      <use x="827.328125" xlink:href="#DejaVuSans-67"/>
      <use x="897.152344" xlink:href="#DejaVuSans-65"/>
      <use x="965.560547" xlink:href="#DejaVuSans-68"/>
      <use x="1042.5625" xlink:href="#DejaVuSans-41"/>
     </g>
    </g>
   </g>
   <g id="patch_68">
    <path d="M 180 630 
L 180 86.4 
" style="fill:none;stroke:#000000;stroke-linecap:square;stroke-linejoin:miter;stroke-width:0.8;"/>
   </g>
   <g id="patch_69">
    <path d="M 1296 630 
L 1296 86.4 
" style="fill:none;stroke:#000000;stroke-linecap:square;stroke-linejoin:miter;stroke-width:0.8;"/>
   </g>
   <g id="patch_70">
    <path d="M 180 630 
L 1296 630 
" style="fill:none;stroke:#000000;stroke-linecap:square;stroke-linejoin:miter;stroke-width:0.8;"/>
   </g>
   <g id="patch_71">
    <path d="M 180 86.4 
L 1296 86.4 
" style="fill:none;stroke:#000000;stroke-linecap:square;stroke-linejoin:miter;stroke-width:0.8;"/>
   </g>
   <g id="text_21">
    <!-- Distribution of Job Skill Level Salary on Job Board Across Canadian Provinces -->
    <g transform="translate(356.584375 80.4)scale(0.2 -0.2)">
     <defs>
      <path d="M 18.3125 70.21875 
L 18.3125 54.6875 
L 36.8125 54.6875 
L 36.8125 47.703125 
L 18.3125 47.703125 
L 18.3125 18.015625 
Q 18.3125 11.328125 20.140625 9.421875 
Q 21.96875 7.515625 27.59375 7.515625 
L 36.8125 7.515625 
L 36.8125 0 
L 27.59375 0 
Q 17.1875 0 13.234375 3.875 
Q 9.28125 7.765625 9.28125 18.015625 
L 9.28125 47.703125 
L 2.6875 47.703125 
L 2.6875 54.6875 
L 9.28125 54.6875 
L 9.28125 70.21875 
z
" id="DejaVuSans-116"/>
      <path d="M 48.6875 27.296875 
Q 48.6875 37.203125 44.609375 42.84375 
Q 40.53125 48.484375 33.40625 48.484375 
Q 26.265625 48.484375 22.1875 42.84375 
Q 18.109375 37.203125 18.109375 27.296875 
Q 18.109375 17.390625 22.1875 11.75 
Q 26.265625 6.109375 33.40625 6.109375 
Q 40.53125 6.109375 44.609375 11.75 
Q 48.6875 17.390625 48.6875 27.296875 
z
M 18.109375 46.390625 
Q 20.953125 51.265625 25.265625 53.625 
Q 29.59375 56 35.59375 56 
Q 45.5625 56 51.78125 48.09375 
Q 58.015625 40.1875 58.015625 27.296875 
Q 58.015625 14.40625 51.78125 6.484375 
Q 45.5625 -1.421875 35.59375 -1.421875 
Q 29.59375 -1.421875 25.265625 0.953125 
Q 20.953125 3.328125 18.109375 8.203125 
L 18.109375 0 
L 9.078125 0 
L 9.078125 75.984375 
L 18.109375 75.984375 
z
" id="DejaVuSans-98"/>
      <path d="M 8.5 21.578125 
L 8.5 54.6875 
L 17.484375 54.6875 
L 17.484375 21.921875 
Q 17.484375 14.15625 20.5 10.265625 
Q 23.53125 6.390625 29.59375 6.390625 
Q 36.859375 6.390625 41.078125 11.03125 
Q 45.3125 15.671875 45.3125 23.6875 
L 45.3125 54.6875 
L 54.296875 54.6875 
L 54.296875 0 
L 45.3125 0 
L 45.3125 8.40625 
Q 42.046875 3.421875 37.71875 1 
Q 33.40625 -1.421875 27.6875 -1.421875 
Q 18.265625 -1.421875 13.375 4.4375 
Q 8.5 10.296875 8.5 21.578125 
z
M 31.109375 56 
z
" id="DejaVuSans-117"/>
      <path d="M 37.109375 75.984375 
L 37.109375 68.5 
L 28.515625 68.5 
Q 23.6875 68.5 21.796875 66.546875 
Q 19.921875 64.59375 19.921875 59.515625 
L 19.921875 54.6875 
L 34.71875 54.6875 
L 34.71875 47.703125 
L 19.921875 47.703125 
L 19.921875 0 
L 10.890625 0 
L 10.890625 47.703125 
L 2.296875 47.703125 
L 2.296875 54.6875 
L 10.890625 54.6875 
L 10.890625 58.5 
Q 10.890625 67.625 15.140625 71.796875 
Q 19.390625 75.984375 28.609375 75.984375 
z
" id="DejaVuSans-102"/>
      <path d="M 9.8125 72.90625 
L 19.671875 72.90625 
L 19.671875 5.078125 
Q 19.671875 -8.109375 14.671875 -14.0625 
Q 9.671875 -20.015625 -1.421875 -20.015625 
L -5.171875 -20.015625 
L -5.171875 -11.71875 
L -2.09375 -11.71875 
Q 4.4375 -11.71875 7.125 -8.046875 
Q 9.8125 -4.390625 9.8125 5.078125 
z
" id="DejaVuSans-74"/>
      <path d="M 9.078125 75.984375 
L 18.109375 75.984375 
L 18.109375 31.109375 
L 44.921875 54.6875 
L 56.390625 54.6875 
L 27.390625 29.109375 
L 57.625 0 
L 45.90625 0 
L 18.109375 26.703125 
L 18.109375 0 
L 9.078125 0 
z
" id="DejaVuSans-107"/>
      <path d="M 45.40625 46.390625 
L 45.40625 75.984375 
L 54.390625 75.984375 
L 54.390625 0 
L 45.40625 0 
L 45.40625 8.203125 
Q 42.578125 3.328125 38.25 0.953125 
Q 33.9375 -1.421875 27.875 -1.421875 
Q 17.96875 -1.421875 11.734375 6.484375 
Q 5.515625 14.40625 5.515625 27.296875 
Q 5.515625 40.1875 11.734375 48.09375 
Q 17.96875 56 27.875 56 
Q 33.9375 56 38.25 53.625 
Q 42.578125 51.265625 45.40625 46.390625 
z
M 14.796875 27.296875 
Q 14.796875 17.390625 18.875 11.75 
Q 22.953125 6.109375 30.078125 6.109375 
Q 37.203125 6.109375 41.296875 11.75 
Q 45.40625 17.390625 45.40625 27.296875 
Q 45.40625 37.203125 41.296875 42.84375 
Q 37.203125 48.484375 30.078125 48.484375 
Q 22.953125 48.484375 18.875 42.84375 
Q 14.796875 37.203125 14.796875 27.296875 
z
" id="DejaVuSans-100"/>
     </defs>
     <use xlink:href="#DejaVuSans-68"/>
     <use x="77.001953" xlink:href="#DejaVuSans-105"/>
     <use x="104.785156" xlink:href="#DejaVuSans-115"/>
     <use x="156.884766" xlink:href="#DejaVuSans-116"/>
     <use x="196.09375" xlink:href="#DejaVuSans-114"/>
     <use x="237.207031" xlink:href="#DejaVuSans-105"/>
     <use x="264.990234" xlink:href="#DejaVuSans-98"/>
     <use x="328.466797" xlink:href="#DejaVuSans-117"/>
     <use x="391.845703" xlink:href="#DejaVuSans-116"/>
     <use x="431.054688" xlink:href="#DejaVuSans-105"/>
     <use x="458.837891" xlink:href="#DejaVuSans-111"/>
     <use x="520.019531" xlink:href="#DejaVuSans-110"/>
     <use x="583.398438" xlink:href="#DejaVuSans-32"/>
     <use x="615.185547" xlink:href="#DejaVuSans-111"/>
     <use x="676.367188" xlink:href="#DejaVuSans-102"/>
     <use x="711.572266" xlink:href="#DejaVuSans-32"/>
     <use x="743.359375" xlink:href="#DejaVuSans-74"/>
     <use x="772.851562" xlink:href="#DejaVuSans-111"/>
     <use x="834.033203" xlink:href="#DejaVuSans-98"/>
     <use x="897.509766" xlink:href="#DejaVuSans-32"/>
     <use x="929.296875" xlink:href="#DejaVuSans-83"/>
     <use x="992.773438" xlink:href="#DejaVuSans-107"/>
     <use x="1050.683594" xlink:href="#DejaVuSans-105"/>
     <use x="1078.466797" xlink:href="#DejaVuSans-108"/>
     <use x="1106.25" xlink:href="#DejaVuSans-108"/>
     <use x="1134.033203" xlink:href="#DejaVuSans-32"/>
     <use x="1165.820312" xlink:href="#DejaVuSans-76"/>
     <use x="1219.783203" xlink:href="#DejaVuSans-101"/>
     <use x="1281.306641" xlink:href="#DejaVuSans-118"/>
     <use x="1340.486328" xlink:href="#DejaVuSans-101"/>
     <use x="1402.009766" xlink:href="#DejaVuSans-108"/>
     <use x="1429.792969" xlink:href="#DejaVuSans-32"/>
     <use x="1461.580078" xlink:href="#DejaVuSans-83"/>
     <use x="1525.056641" xlink:href="#DejaVuSans-97"/>
     <use x="1586.335938" xlink:href="#DejaVuSans-108"/>
     <use x="1614.119141" xlink:href="#DejaVuSans-97"/>
     <use x="1675.398438" xlink:href="#DejaVuSans-114"/>
     <use x="1716.511719" xlink:href="#DejaVuSans-121"/>
     <use x="1775.691406" xlink:href="#DejaVuSans-32"/>
     <use x="1807.478516" xlink:href="#DejaVuSans-111"/>
     <use x="1868.660156" xlink:href="#DejaVuSans-110"/>
     <use x="1932.039062" xlink:href="#DejaVuSans-32"/>
     <use x="1963.826172" xlink:href="#DejaVuSans-74"/>
     <use x="1993.318359" xlink:href="#DejaVuSans-111"/>
     <use x="2054.5" xlink:href="#DejaVuSans-98"/>
     <use x="2117.976562" xlink:href="#DejaVuSans-32"/>
     <use x="2149.763672" xlink:href="#DejaVuSans-66"/>
     <use x="2218.367188" xlink:href="#DejaVuSans-111"/>
     <use x="2279.548828" xlink:href="#DejaVuSans-97"/>
     <use x="2340.828125" xlink:href="#DejaVuSans-114"/>
     <use x="2380.191406" xlink:href="#DejaVuSans-100"/>
     <use x="2443.667969" xlink:href="#DejaVuSans-32"/>
     <use x="2475.455078" xlink:href="#DejaVuSans-65"/>
     <use x="2542.113281" xlink:href="#DejaVuSans-99"/>
     <use x="2597.09375" xlink:href="#DejaVuSans-114"/>
     <use x="2635.957031" xlink:href="#DejaVuSans-111"/>
     <use x="2697.138672" xlink:href="#DejaVuSans-115"/>
     <use x="2749.238281" xlink:href="#DejaVuSans-115"/>
     <use x="2801.337891" xlink:href="#DejaVuSans-32"/>
     <use x="2833.125" xlink:href="#DejaVuSans-67"/>
     <use x="2902.949219" xlink:href="#DejaVuSans-97"/>
     <use x="2964.228516" xlink:href="#DejaVuSans-110"/>
     <use x="3027.607422" xlink:href="#DejaVuSans-97"/>
     <use x="3088.886719" xlink:href="#DejaVuSans-100"/>
     <use x="3152.363281" xlink:href="#DejaVuSans-105"/>
     <use x="3180.146484" xlink:href="#DejaVuSans-97"/>
     <use x="3241.425781" xlink:href="#DejaVuSans-110"/>
     <use x="3304.804688" xlink:href="#DejaVuSans-32"/>
     <use x="3336.591797" xlink:href="#DejaVuSans-80"/>
     <use x="3395.144531" xlink:href="#DejaVuSans-114"/>
     <use x="3434.007812" xlink:href="#DejaVuSans-111"/>
     <use x="3495.189453" xlink:href="#DejaVuSans-118"/>
     <use x="3554.369141" xlink:href="#DejaVuSans-105"/>
     <use x="3582.152344" xlink:href="#DejaVuSans-110"/>
     <use x="3645.53125" xlink:href="#DejaVuSans-99"/>
     <use x="3700.511719" xlink:href="#DejaVuSans-101"/>
     <use x="3762.035156" xlink:href="#DejaVuSans-115"/>
    </g>
   </g>
   <g id="legend_1">
    <g id="patch_72">
     <path d="M 1181.582813 208.485937 
L 1285.5 208.485937 
Q 1288.5 208.485937 1288.5 205.485937 
L 1288.5 96.9 
Q 1288.5 93.9 1285.5 93.9 
L 1181.582813 93.9 
Q 1178.582813 93.9 1178.582813 96.9 
L 1178.582813 205.485937 
Q 1178.582813 208.485937 1181.582813 208.485937 
z
" style="fill:#ffffff;opacity:0.8;stroke:#cccccc;stroke-linejoin:miter;"/>
    </g>
    <g id="patch_73">
     <path d="M 1184.582813 111.297656 
L 1214.582813 111.297656 
L 1214.582813 100.797656 
L 1184.582813 100.797656 
z
" style="fill:#1f77b4;"/>
    </g>
    <g id="text_22">
     <!-- Level A -->
     <g transform="translate(1226.582813 111.297656)scale(0.15 -0.15)">
      <use xlink:href="#DejaVuSans-76"/>
      <use x="53.962891" xlink:href="#DejaVuSans-101"/>
      <use x="115.486328" xlink:href="#DejaVuSans-118"/>
      <use x="174.666016" xlink:href="#DejaVuSans-101"/>
      <use x="236.189453" xlink:href="#DejaVuSans-108"/>
      <use x="263.972656" xlink:href="#DejaVuSans-32"/>
      <use x="295.759766" xlink:href="#DejaVuSans-65"/>
     </g>
    </g>
    <g id="patch_74">
     <path d="M 1184.582813 133.314844 
L 1214.582813 133.314844 
L 1214.582813 122.814844 
L 1184.582813 122.814844 
z
" style="fill:#ff7f0e;"/>
    </g>
    <g id="text_23">
     <!-- Level B -->
     <g transform="translate(1226.582813 133.314844)scale(0.15 -0.15)">
      <use xlink:href="#DejaVuSans-76"/>
      <use x="53.962891" xlink:href="#DejaVuSans-101"/>
      <use x="115.486328" xlink:href="#DejaVuSans-118"/>
      <use x="174.666016" xlink:href="#DejaVuSans-101"/>
      <use x="236.189453" xlink:href="#DejaVuSans-108"/>
      <use x="263.972656" xlink:href="#DejaVuSans-32"/>
      <use x="295.759766" xlink:href="#DejaVuSans-66"/>
     </g>
    </g>
    <g id="patch_75">
     <path d="M 1184.582813 155.332031 
L 1214.582813 155.332031 
L 1214.582813 144.832031 
L 1184.582813 144.832031 
z
" style="fill:#2ca02c;"/>
    </g>
    <g id="text_24">
     <!-- Level C -->
     <g transform="translate(1226.582813 155.332031)scale(0.15 -0.15)">
      <use xlink:href="#DejaVuSans-76"/>
      <use x="53.962891" xlink:href="#DejaVuSans-101"/>
      <use x="115.486328" xlink:href="#DejaVuSans-118"/>
      <use x="174.666016" xlink:href="#DejaVuSans-101"/>
      <use x="236.189453" xlink:href="#DejaVuSans-108"/>
      <use x="263.972656" xlink:href="#DejaVuSans-32"/>
      <use x="295.759766" xlink:href="#DejaVuSans-67"/>
     </g>
    </g>
    <g id="patch_76">
     <path d="M 1184.582813 177.349219 
L 1214.582813 177.349219 
L 1214.582813 166.849219 
L 1184.582813 166.849219 
z
" style="fill:#d62728;"/>
    </g>
    <g id="text_25">
     <!-- Level D -->
     <g transform="translate(1226.582813 177.349219)scale(0.15 -0.15)">
      <use xlink:href="#DejaVuSans-76"/>
      <use x="53.962891" xlink:href="#DejaVuSans-101"/>
      <use x="115.486328" xlink:href="#DejaVuSans-118"/>
      <use x="174.666016" xlink:href="#DejaVuSans-101"/>
      <use x="236.189453" xlink:href="#DejaVuSans-108"/>
      <use x="263.972656" xlink:href="#DejaVuSans-32"/>
      <use x="295.759766" xlink:href="#DejaVuSans-68"/>
     </g>
    </g>
    <g id="patch_77">
     <path d="M 1184.582813 199.366406 
L 1214.582813 199.366406 
L 1214.582813 188.866406 
L 1184.582813 188.866406 
z
" style="fill:#9467bd;"/>
    </g>
    <g id="text_26">
     <!-- Level 0 -->
     <g transform="translate(1226.582813 199.366406)scale(0.15 -0.15)">
      <use xlink:href="#DejaVuSans-76"/>
      <use x="53.962891" xlink:href="#DejaVuSans-101"/>
      <use x="115.486328" xlink:href="#DejaVuSans-118"/>
      <use x="174.666016" xlink:href="#DejaVuSans-101"/>
      <use x="236.189453" xlink:href="#DejaVuSans-108"/>
      <use x="263.972656" xlink:href="#DejaVuSans-32"/>
      <use x="295.759766" xlink:href="#DejaVuSans-48"/>
     </g>
    </g>
   </g>
  </g>
 </g>
 <defs>
  <clipPath id="p12d2d8877d">
   <rect height="543.6" width="1116" x="180" y="86.4"/>
  </clipPath>
 </defs>
</svg>
