<?xml version="1.0" encoding="utf-8" standalone="no"?>
<!DOCTYPE svg PUBLIC "-//W3C//DTD SVG 1.1//EN"
  "http://www.w3.org/Graphics/SVG/1.1/DTD/svg11.dtd">
<!-- Created with matplotlib (https://matplotlib.org/) -->
<svg height="432pt" version="1.1" viewBox="0 0 1440 432" width="1440pt" xmlns="http://www.w3.org/2000/svg" xmlns:xlink="http://www.w3.org/1999/xlink">
 <metadata>
  <rdf:RDF xmlns:cc="http://creativecommons.org/ns#" xmlns:dc="http://purl.org/dc/elements/1.1/" xmlns:rdf="http://www.w3.org/1999/02/22-rdf-syntax-ns#">
   <cc:Work>
    <dc:type rdf:resource="http://purl.org/dc/dcmitype/StillImage"/>
    <dc:date>2021-05-09T21:40:47.093257</dc:date>
    <dc:format>image/svg+xml</dc:format>
    <dc:creator>
     <cc:Agent>
      <dc:title>Matplotlib v3.3.2, https://matplotlib.org/</dc:title>
     </cc:Agent>
    </dc:creator>
   </cc:Work>
  </rdf:RDF>
 </metadata>
 <defs>
  <style type="text/css">*{stroke-linecap:butt;stroke-linejoin:round;}</style>
 </defs>
 <g id="figure_1">
  <g id="patch_1">
   <path d="M 0 432 
L 1440 432 
L 1440 0 
L 0 0 
z
" style="fill:none;"/>
  </g>
  <g id="axes_1">
   <g id="patch_2">
    <path d="M 180 378 
L 1296 378 
L 1296 51.84 
L 180 51.84 
z
" style="fill:#ffffff;"/>
   </g>
   <g id="patch_3">
    <path clip-path="url(#p654050d7ad)" d="M 193.95 378 
L 221.85 378 
L 221.85 67.371429 
L 193.95 67.371429 
z
" style="fill:#1f77b4;"/>
   </g>
   <g id="patch_4">
    <path clip-path="url(#p654050d7ad)" d="M 249.75 378 
L 277.65 378 
L 277.65 78.810378 
L 249.75 78.810378 
z
" style="fill:#1f77b4;"/>
   </g>
   <g id="patch_5">
    <path clip-path="url(#p654050d7ad)" d="M 305.55 378 
L 333.45 378 
L 333.45 100.355585 
L 305.55 100.355585 
z
" style="fill:#1f77b4;"/>
   </g>
   <g id="patch_6">
    <path clip-path="url(#p654050d7ad)" d="M 361.35 378 
L 389.25 378 
L 389.25 105.880709 
L 361.35 105.880709 
z
" style="fill:#1f77b4;"/>
   </g>
   <g id="patch_7">
    <path clip-path="url(#p654050d7ad)" d="M 417.15 378 
L 445.05 378 
L 445.05 110.53588 
L 417.15 110.53588 
z
" style="fill:#1f77b4;"/>
   </g>
   <g id="patch_8">
    <path clip-path="url(#p654050d7ad)" d="M 472.95 378 
L 500.85 378 
L 500.85 128.120027 
L 472.95 128.120027 
z
" style="fill:#1f77b4;"/>
   </g>
   <g id="patch_9">
    <path clip-path="url(#p654050d7ad)" d="M 528.75 378 
L 556.65 378 
L 556.65 135.061137 
L 528.75 135.061137 
z
" style="fill:#1f77b4;"/>
   </g>
   <g id="patch_10">
    <path clip-path="url(#p654050d7ad)" d="M 584.55 378 
L 612.45 378 
L 612.45 138.691338 
L 584.55 138.691338 
z
" style="fill:#1f77b4;"/>
   </g>
   <g id="patch_11">
    <path clip-path="url(#p654050d7ad)" d="M 640.35 378 
L 668.25 378 
L 668.25 141.419194 
L 640.35 141.419194 
z
" style="fill:#1f77b4;"/>
   </g>
   <g id="patch_12">
    <path clip-path="url(#p654050d7ad)" d="M 696.15 378 
L 724.05 378 
L 724.05 141.419194 
L 696.15 141.419194 
z
" style="fill:#1f77b4;"/>
   </g>
   <g id="patch_13">
    <path clip-path="url(#p654050d7ad)" d="M 751.95 378 
L 779.85 378 
L 779.85 141.419194 
L 751.95 141.419194 
z
" style="fill:#1f77b4;"/>
   </g>
   <g id="patch_14">
    <path clip-path="url(#p654050d7ad)" d="M 807.75 378 
L 835.65 378 
L 835.65 141.419194 
L 807.75 141.419194 
z
" style="fill:#1f77b4;"/>
   </g>
   <g id="patch_15">
    <path clip-path="url(#p654050d7ad)" d="M 863.55 378 
L 891.45 378 
L 891.45 141.419194 
L 863.55 141.419194 
z
" style="fill:#1f77b4;"/>
   </g>
   <g id="patch_16">
    <path clip-path="url(#p654050d7ad)" d="M 919.35 378 
L 947.25 378 
L 947.25 141.419194 
L 919.35 141.419194 
z
" style="fill:#1f77b4;"/>
   </g>
   <g id="patch_17">
    <path clip-path="url(#p654050d7ad)" d="M 975.15 378 
L 1003.05 378 
L 1003.05 141.419194 
L 975.15 141.419194 
z
" style="fill:#1f77b4;"/>
   </g>
   <g id="patch_18">
    <path clip-path="url(#p654050d7ad)" d="M 1030.95 378 
L 1058.85 378 
L 1058.85 141.419194 
L 1030.95 141.419194 
z
" style="fill:#1f77b4;"/>
   </g>
   <g id="patch_19">
    <path clip-path="url(#p654050d7ad)" d="M 1086.75 378 
L 1114.65 378 
L 1114.65 143.46233 
L 1086.75 143.46233 
z
" style="fill:#1f77b4;"/>
   </g>
   <g id="patch_20">
    <path clip-path="url(#p654050d7ad)" d="M 1142.55 378 
L 1170.45 378 
L 1170.45 143.737525 
L 1142.55 143.737525 
z
" style="fill:#1f77b4;"/>
   </g>
   <g id="patch_21">
    <path clip-path="url(#p654050d7ad)" d="M 1198.35 378 
L 1226.25 378 
L 1226.25 144.015169 
L 1198.35 144.015169 
z
" style="fill:#1f77b4;"/>
   </g>
   <g id="patch_22">
    <path clip-path="url(#p654050d7ad)" d="M 1254.15 378 
L 1282.05 378 
L 1282.05 145.472802 
L 1254.15 145.472802 
z
" style="fill:#1f77b4;"/>
   </g>
   <g id="matplotlib.axis_1">
    <g id="xtick_1">
     <g id="line2d_1">
      <defs>
       <path d="M 0 0 
L 0 3.5 
" id="m386b2a5808" style="stroke:#000000;stroke-width:0.8;"/>
      </defs>
      <g>
       <use style="stroke:#000000;stroke-width:0.8;" x="207.9" xlink:href="#m386b2a5808" y="378"/>
      </g>
     </g>
     <g id="text_1">
      <!-- Chapleau, ON -->
      <g transform="translate(211.21125 467.68375)rotate(-90)scale(0.12 -0.12)">
       <defs>
        <path d="M 64.40625 67.28125 
L 64.40625 56.890625 
Q 59.421875 61.53125 53.78125 63.8125 
Q 48.140625 66.109375 41.796875 66.109375 
Q 29.296875 66.109375 22.65625 58.46875 
Q 16.015625 50.828125 16.015625 36.375 
Q 16.015625 21.96875 22.65625 14.328125 
Q 29.296875 6.6875 41.796875 6.6875 
Q 48.140625 6.6875 53.78125 8.984375 
Q 59.421875 11.28125 64.40625 15.921875 
L 64.40625 5.609375 
Q 59.234375 2.09375 53.4375 0.328125 
Q 47.65625 -1.421875 41.21875 -1.421875 
Q 24.65625 -1.421875 15.125 8.703125 
Q 5.609375 18.84375 5.609375 36.375 
Q 5.609375 53.953125 15.125 64.078125 
Q 24.65625 74.21875 41.21875 74.21875 
Q 47.75 74.21875 53.53125 72.484375 
Q 59.328125 70.75 64.40625 67.28125 
z
" id="DejaVuSans-67"/>
        <path d="M 54.890625 33.015625 
L 54.890625 0 
L 45.90625 0 
L 45.90625 32.71875 
Q 45.90625 40.484375 42.875 44.328125 
Q 39.84375 48.1875 33.796875 48.1875 
Q 26.515625 48.1875 22.3125 43.546875 
Q 18.109375 38.921875 18.109375 30.90625 
L 18.109375 0 
L 9.078125 0 
L 9.078125 75.984375 
L 18.109375 75.984375 
L 18.109375 46.1875 
Q 21.34375 51.125 25.703125 53.5625 
Q 30.078125 56 35.796875 56 
Q 45.21875 56 50.046875 50.171875 
Q 54.890625 44.34375 54.890625 33.015625 
z
" id="DejaVuSans-104"/>
        <path d="M 34.28125 27.484375 
Q 23.390625 27.484375 19.1875 25 
Q 14.984375 22.515625 14.984375 16.5 
Q 14.984375 11.71875 18.140625 8.90625 
Q 21.296875 6.109375 26.703125 6.109375 
Q 34.1875 6.109375 38.703125 11.40625 
Q 43.21875 16.703125 43.21875 25.484375 
L 43.21875 27.484375 
z
M 52.203125 31.203125 
L 52.203125 0 
L 43.21875 0 
L 43.21875 8.296875 
Q 40.140625 3.328125 35.546875 0.953125 
Q 30.953125 -1.421875 24.3125 -1.421875 
Q 15.921875 -1.421875 10.953125 3.296875 
Q 6 8.015625 6 15.921875 
Q 6 25.140625 12.171875 29.828125 
Q 18.359375 34.515625 30.609375 34.515625 
L 43.21875 34.515625 
L 43.21875 35.40625 
Q 43.21875 41.609375 39.140625 45 
Q 35.0625 48.390625 27.6875 48.390625 
Q 23 48.390625 18.546875 47.265625 
Q 14.109375 46.140625 10.015625 43.890625 
L 10.015625 52.203125 
Q 14.9375 54.109375 19.578125 55.046875 
Q 24.21875 56 28.609375 56 
Q 40.484375 56 46.34375 49.84375 
Q 52.203125 43.703125 52.203125 31.203125 
z
" id="DejaVuSans-97"/>
        <path d="M 18.109375 8.203125 
L 18.109375 -20.796875 
L 9.078125 -20.796875 
L 9.078125 54.6875 
L 18.109375 54.6875 
L 18.109375 46.390625 
Q 20.953125 51.265625 25.265625 53.625 
Q 29.59375 56 35.59375 56 
Q 45.5625 56 51.78125 48.09375 
Q 58.015625 40.1875 58.015625 27.296875 
Q 58.015625 14.40625 51.78125 6.484375 
Q 45.5625 -1.421875 35.59375 -1.421875 
Q 29.59375 -1.421875 25.265625 0.953125 
Q 20.953125 3.328125 18.109375 8.203125 
z
M 48.6875 27.296875 
Q 48.6875 37.203125 44.609375 42.84375 
Q 40.53125 48.484375 33.40625 48.484375 
Q 26.265625 48.484375 22.1875 42.84375 
Q 18.109375 37.203125 18.109375 27.296875 
Q 18.109375 17.390625 22.1875 11.75 
Q 26.265625 6.109375 33.40625 6.109375 
Q 40.53125 6.109375 44.609375 11.75 
Q 48.6875 17.390625 48.6875 27.296875 
z
" id="DejaVuSans-112"/>
        <path d="M 9.421875 75.984375 
L 18.40625 75.984375 
L 18.40625 0 
L 9.421875 0 
z
" id="DejaVuSans-108"/>
        <path d="M 56.203125 29.59375 
L 56.203125 25.203125 
L 14.890625 25.203125 
Q 15.484375 15.921875 20.484375 11.0625 
Q 25.484375 6.203125 34.421875 6.203125 
Q 39.59375 6.203125 44.453125 7.46875 
Q 49.3125 8.734375 54.109375 11.28125 
L 54.109375 2.78125 
Q 49.265625 0.734375 44.1875 -0.34375 
Q 39.109375 -1.421875 33.890625 -1.421875 
Q 20.796875 -1.421875 13.15625 6.1875 
Q 5.515625 13.8125 5.515625 26.8125 
Q 5.515625 40.234375 12.765625 48.109375 
Q 20.015625 56 32.328125 56 
Q 43.359375 56 49.78125 48.890625 
Q 56.203125 41.796875 56.203125 29.59375 
z
M 47.21875 32.234375 
Q 47.125 39.59375 43.09375 43.984375 
Q 39.0625 48.390625 32.421875 48.390625 
Q 24.90625 48.390625 20.390625 44.140625 
Q 15.875 39.890625 15.1875 32.171875 
z
" id="DejaVuSans-101"/>
        <path d="M 8.5 21.578125 
L 8.5 54.6875 
L 17.484375 54.6875 
L 17.484375 21.921875 
Q 17.484375 14.15625 20.5 10.265625 
Q 23.53125 6.390625 29.59375 6.390625 
Q 36.859375 6.390625 41.078125 11.03125 
Q 45.3125 15.671875 45.3125 23.6875 
L 45.3125 54.6875 
L 54.296875 54.6875 
L 54.296875 0 
L 45.3125 0 
L 45.3125 8.40625 
Q 42.046875 3.421875 37.71875 1 
Q 33.40625 -1.421875 27.6875 -1.421875 
Q 18.265625 -1.421875 13.375 4.4375 
Q 8.5 10.296875 8.5 21.578125 
z
M 31.109375 56 
z
" id="DejaVuSans-117"/>
        <path d="M 11.71875 12.40625 
L 22.015625 12.40625 
L 22.015625 4 
L 14.015625 -11.625 
L 7.71875 -11.625 
L 11.71875 4 
z
" id="DejaVuSans-44"/>
        <path id="DejaVuSans-32"/>
        <path d="M 39.40625 66.21875 
Q 28.65625 66.21875 22.328125 58.203125 
Q 16.015625 50.203125 16.015625 36.375 
Q 16.015625 22.609375 22.328125 14.59375 
Q 28.65625 6.59375 39.40625 6.59375 
Q 50.140625 6.59375 56.421875 14.59375 
Q 62.703125 22.609375 62.703125 36.375 
Q 62.703125 50.203125 56.421875 58.203125 
Q 50.140625 66.21875 39.40625 66.21875 
z
M 39.40625 74.21875 
Q 54.734375 74.21875 63.90625 63.9375 
Q 73.09375 53.65625 73.09375 36.375 
Q 73.09375 19.140625 63.90625 8.859375 
Q 54.734375 -1.421875 39.40625 -1.421875 
Q 24.03125 -1.421875 14.8125 8.828125 
Q 5.609375 19.09375 5.609375 36.375 
Q 5.609375 53.65625 14.8125 63.9375 
Q 24.03125 74.21875 39.40625 74.21875 
z
" id="DejaVuSans-79"/>
        <path d="M 9.8125 72.90625 
L 23.09375 72.90625 
L 55.421875 11.921875 
L 55.421875 72.90625 
L 64.984375 72.90625 
L 64.984375 0 
L 51.703125 0 
L 19.390625 60.984375 
L 19.390625 0 
L 9.8125 0 
z
" id="DejaVuSans-78"/>
       </defs>
       <use xlink:href="#DejaVuSans-67"/>
       <use x="69.824219" xlink:href="#DejaVuSans-104"/>
       <use x="133.203125" xlink:href="#DejaVuSans-97"/>
       <use x="194.482422" xlink:href="#DejaVuSans-112"/>
       <use x="257.958984" xlink:href="#DejaVuSans-108"/>
       <use x="285.742188" xlink:href="#DejaVuSans-101"/>
       <use x="347.265625" xlink:href="#DejaVuSans-97"/>
       <use x="408.544922" xlink:href="#DejaVuSans-117"/>
       <use x="471.923828" xlink:href="#DejaVuSans-44"/>
       <use x="503.710938" xlink:href="#DejaVuSans-32"/>
       <use x="535.498047" xlink:href="#DejaVuSans-79"/>
       <use x="614.208984" xlink:href="#DejaVuSans-78"/>
      </g>
     </g>
    </g>
    <g id="xtick_2">
     <g id="line2d_2">
      <g>
       <use style="stroke:#000000;stroke-width:0.8;" x="263.7" xlink:href="#m386b2a5808" y="378"/>
      </g>
     </g>
     <g id="text_2">
      <!-- Cumberland House, SK -->
      <g transform="translate(267.01125 523.054375)rotate(-90)scale(0.12 -0.12)">
       <defs>
        <path d="M 52 44.1875 
Q 55.375 50.25 60.0625 53.125 
Q 64.75 56 71.09375 56 
Q 79.640625 56 84.28125 50.015625 
Q 88.921875 44.046875 88.921875 33.015625 
L 88.921875 0 
L 79.890625 0 
L 79.890625 32.71875 
Q 79.890625 40.578125 77.09375 44.375 
Q 74.3125 48.1875 68.609375 48.1875 
Q 61.625 48.1875 57.5625 43.546875 
Q 53.515625 38.921875 53.515625 30.90625 
L 53.515625 0 
L 44.484375 0 
L 44.484375 32.71875 
Q 44.484375 40.625 41.703125 44.40625 
Q 38.921875 48.1875 33.109375 48.1875 
Q 26.21875 48.1875 22.15625 43.53125 
Q 18.109375 38.875 18.109375 30.90625 
L 18.109375 0 
L 9.078125 0 
L 9.078125 54.6875 
L 18.109375 54.6875 
L 18.109375 46.1875 
Q 21.1875 51.21875 25.484375 53.609375 
Q 29.78125 56 35.6875 56 
Q 41.65625 56 45.828125 52.96875 
Q 50 49.953125 52 44.1875 
z
" id="DejaVuSans-109"/>
        <path d="M 48.6875 27.296875 
Q 48.6875 37.203125 44.609375 42.84375 
Q 40.53125 48.484375 33.40625 48.484375 
Q 26.265625 48.484375 22.1875 42.84375 
Q 18.109375 37.203125 18.109375 27.296875 
Q 18.109375 17.390625 22.1875 11.75 
Q 26.265625 6.109375 33.40625 6.109375 
Q 40.53125 6.109375 44.609375 11.75 
Q 48.6875 17.390625 48.6875 27.296875 
z
M 18.109375 46.390625 
Q 20.953125 51.265625 25.265625 53.625 
Q 29.59375 56 35.59375 56 
Q 45.5625 56 51.78125 48.09375 
Q 58.015625 40.1875 58.015625 27.296875 
Q 58.015625 14.40625 51.78125 6.484375 
Q 45.5625 -1.421875 35.59375 -1.421875 
Q 29.59375 -1.421875 25.265625 0.953125 
Q 20.953125 3.328125 18.109375 8.203125 
L 18.109375 0 
L 9.078125 0 
L 9.078125 75.984375 
L 18.109375 75.984375 
z
" id="DejaVuSans-98"/>
        <path d="M 41.109375 46.296875 
Q 39.59375 47.171875 37.8125 47.578125 
Q 36.03125 48 33.890625 48 
Q 26.265625 48 22.1875 43.046875 
Q 18.109375 38.09375 18.109375 28.8125 
L 18.109375 0 
L 9.078125 0 
L 9.078125 54.6875 
L 18.109375 54.6875 
L 18.109375 46.1875 
Q 20.953125 51.171875 25.484375 53.578125 
Q 30.03125 56 36.53125 56 
Q 37.453125 56 38.578125 55.875 
Q 39.703125 55.765625 41.0625 55.515625 
z
" id="DejaVuSans-114"/>
        <path d="M 54.890625 33.015625 
L 54.890625 0 
L 45.90625 0 
L 45.90625 32.71875 
Q 45.90625 40.484375 42.875 44.328125 
Q 39.84375 48.1875 33.796875 48.1875 
Q 26.515625 48.1875 22.3125 43.546875 
Q 18.109375 38.921875 18.109375 30.90625 
L 18.109375 0 
L 9.078125 0 
L 9.078125 54.6875 
L 18.109375 54.6875 
L 18.109375 46.1875 
Q 21.34375 51.125 25.703125 53.5625 
Q 30.078125 56 35.796875 56 
Q 45.21875 56 50.046875 50.171875 
Q 54.890625 44.34375 54.890625 33.015625 
z
" id="DejaVuSans-110"/>
        <path d="M 45.40625 46.390625 
L 45.40625 75.984375 
L 54.390625 75.984375 
L 54.390625 0 
L 45.40625 0 
L 45.40625 8.203125 
Q 42.578125 3.328125 38.25 0.953125 
Q 33.9375 -1.421875 27.875 -1.421875 
Q 17.96875 -1.421875 11.734375 6.484375 
Q 5.515625 14.40625 5.515625 27.296875 
Q 5.515625 40.1875 11.734375 48.09375 
Q 17.96875 56 27.875 56 
Q 33.9375 56 38.25 53.625 
Q 42.578125 51.265625 45.40625 46.390625 
z
M 14.796875 27.296875 
Q 14.796875 17.390625 18.875 11.75 
Q 22.953125 6.109375 30.078125 6.109375 
Q 37.203125 6.109375 41.296875 11.75 
Q 45.40625 17.390625 45.40625 27.296875 
Q 45.40625 37.203125 41.296875 42.84375 
Q 37.203125 48.484375 30.078125 48.484375 
Q 22.953125 48.484375 18.875 42.84375 
Q 14.796875 37.203125 14.796875 27.296875 
z
" id="DejaVuSans-100"/>
        <path d="M 9.8125 72.90625 
L 19.671875 72.90625 
L 19.671875 43.015625 
L 55.515625 43.015625 
L 55.515625 72.90625 
L 65.375 72.90625 
L 65.375 0 
L 55.515625 0 
L 55.515625 34.71875 
L 19.671875 34.71875 
L 19.671875 0 
L 9.8125 0 
z
" id="DejaVuSans-72"/>
        <path d="M 30.609375 48.390625 
Q 23.390625 48.390625 19.1875 42.75 
Q 14.984375 37.109375 14.984375 27.296875 
Q 14.984375 17.484375 19.15625 11.84375 
Q 23.34375 6.203125 30.609375 6.203125 
Q 37.796875 6.203125 41.984375 11.859375 
Q 46.1875 17.53125 46.1875 27.296875 
Q 46.1875 37.015625 41.984375 42.703125 
Q 37.796875 48.390625 30.609375 48.390625 
z
M 30.609375 56 
Q 42.328125 56 49.015625 48.375 
Q 55.71875 40.765625 55.71875 27.296875 
Q 55.71875 13.875 49.015625 6.21875 
Q 42.328125 -1.421875 30.609375 -1.421875 
Q 18.84375 -1.421875 12.171875 6.21875 
Q 5.515625 13.875 5.515625 27.296875 
Q 5.515625 40.765625 12.171875 48.375 
Q 18.84375 56 30.609375 56 
z
" id="DejaVuSans-111"/>
        <path d="M 44.28125 53.078125 
L 44.28125 44.578125 
Q 40.484375 46.53125 36.375 47.5 
Q 32.28125 48.484375 27.875 48.484375 
Q 21.1875 48.484375 17.84375 46.4375 
Q 14.5 44.390625 14.5 40.28125 
Q 14.5 37.15625 16.890625 35.375 
Q 19.28125 33.59375 26.515625 31.984375 
L 29.59375 31.296875 
Q 39.15625 29.25 43.1875 25.515625 
Q 47.21875 21.78125 47.21875 15.09375 
Q 47.21875 7.46875 41.1875 3.015625 
Q 35.15625 -1.421875 24.609375 -1.421875 
Q 20.21875 -1.421875 15.453125 -0.5625 
Q 10.6875 0.296875 5.421875 2 
L 5.421875 11.28125 
Q 10.40625 8.6875 15.234375 7.390625 
Q 20.0625 6.109375 24.8125 6.109375 
Q 31.15625 6.109375 34.5625 8.28125 
Q 37.984375 10.453125 37.984375 14.40625 
Q 37.984375 18.0625 35.515625 20.015625 
Q 33.0625 21.96875 24.703125 23.78125 
L 21.578125 24.515625 
Q 13.234375 26.265625 9.515625 29.90625 
Q 5.8125 33.546875 5.8125 39.890625 
Q 5.8125 47.609375 11.28125 51.796875 
Q 16.75 56 26.8125 56 
Q 31.78125 56 36.171875 55.265625 
Q 40.578125 54.546875 44.28125 53.078125 
z
" id="DejaVuSans-115"/>
        <path d="M 53.515625 70.515625 
L 53.515625 60.890625 
Q 47.90625 63.578125 42.921875 64.890625 
Q 37.9375 66.21875 33.296875 66.21875 
Q 25.25 66.21875 20.875 63.09375 
Q 16.5 59.96875 16.5 54.203125 
Q 16.5 49.359375 19.40625 46.890625 
Q 22.3125 44.4375 30.421875 42.921875 
L 36.375 41.703125 
Q 47.40625 39.59375 52.65625 34.296875 
Q 57.90625 29 57.90625 20.125 
Q 57.90625 9.515625 50.796875 4.046875 
Q 43.703125 -1.421875 29.984375 -1.421875 
Q 24.8125 -1.421875 18.96875 -0.25 
Q 13.140625 0.921875 6.890625 3.21875 
L 6.890625 13.375 
Q 12.890625 10.015625 18.65625 8.296875 
Q 24.421875 6.59375 29.984375 6.59375 
Q 38.421875 6.59375 43.015625 9.90625 
Q 47.609375 13.234375 47.609375 19.390625 
Q 47.609375 24.75 44.3125 27.78125 
Q 41.015625 30.8125 33.5 32.328125 
L 27.484375 33.5 
Q 16.453125 35.6875 11.515625 40.375 
Q 6.59375 45.0625 6.59375 53.421875 
Q 6.59375 63.09375 13.40625 68.65625 
Q 20.21875 74.21875 32.171875 74.21875 
Q 37.3125 74.21875 42.625 73.28125 
Q 47.953125 72.359375 53.515625 70.515625 
z
" id="DejaVuSans-83"/>
        <path d="M 9.8125 72.90625 
L 19.671875 72.90625 
L 19.671875 42.09375 
L 52.390625 72.90625 
L 65.09375 72.90625 
L 28.90625 38.921875 
L 67.671875 0 
L 54.6875 0 
L 19.671875 35.109375 
L 19.671875 0 
L 9.8125 0 
z
" id="DejaVuSans-75"/>
       </defs>
       <use xlink:href="#DejaVuSans-67"/>
       <use x="69.824219" xlink:href="#DejaVuSans-117"/>
       <use x="133.203125" xlink:href="#DejaVuSans-109"/>
       <use x="230.615234" xlink:href="#DejaVuSans-98"/>
       <use x="294.091797" xlink:href="#DejaVuSans-101"/>
       <use x="355.615234" xlink:href="#DejaVuSans-114"/>
       <use x="396.728516" xlink:href="#DejaVuSans-108"/>
       <use x="424.511719" xlink:href="#DejaVuSans-97"/>
       <use x="485.791016" xlink:href="#DejaVuSans-110"/>
       <use x="549.169922" xlink:href="#DejaVuSans-100"/>
       <use x="612.646484" xlink:href="#DejaVuSans-32"/>
       <use x="644.433594" xlink:href="#DejaVuSans-72"/>
       <use x="719.628906" xlink:href="#DejaVuSans-111"/>
       <use x="780.810547" xlink:href="#DejaVuSans-117"/>
       <use x="844.189453" xlink:href="#DejaVuSans-115"/>
       <use x="896.289062" xlink:href="#DejaVuSans-101"/>
       <use x="957.8125" xlink:href="#DejaVuSans-44"/>
       <use x="989.599609" xlink:href="#DejaVuSans-32"/>
       <use x="1021.386719" xlink:href="#DejaVuSans-83"/>
       <use x="1084.863281" xlink:href="#DejaVuSans-75"/>
      </g>
     </g>
    </g>
    <g id="xtick_3">
     <g id="line2d_3">
      <g>
       <use style="stroke:#000000;stroke-width:0.8;" x="319.5" xlink:href="#m386b2a5808" y="378"/>
      </g>
     </g>
     <g id="text_3">
      <!-- Kirkland Lake, ON -->
      <g transform="translate(322.81125 491.798125)rotate(-90)scale(0.12 -0.12)">
       <defs>
        <path d="M 9.421875 54.6875 
L 18.40625 54.6875 
L 18.40625 0 
L 9.421875 0 
z
M 9.421875 75.984375 
L 18.40625 75.984375 
L 18.40625 64.59375 
L 9.421875 64.59375 
z
" id="DejaVuSans-105"/>
        <path d="M 9.078125 75.984375 
L 18.109375 75.984375 
L 18.109375 31.109375 
L 44.921875 54.6875 
L 56.390625 54.6875 
L 27.390625 29.109375 
L 57.625 0 
L 45.90625 0 
L 18.109375 26.703125 
L 18.109375 0 
L 9.078125 0 
z
" id="DejaVuSans-107"/>
        <path d="M 9.8125 72.90625 
L 19.671875 72.90625 
L 19.671875 8.296875 
L 55.171875 8.296875 
L 55.171875 0 
L 9.8125 0 
z
" id="DejaVuSans-76"/>
       </defs>
       <use xlink:href="#DejaVuSans-75"/>
       <use x="65.576172" xlink:href="#DejaVuSans-105"/>
       <use x="93.359375" xlink:href="#DejaVuSans-114"/>
       <use x="134.472656" xlink:href="#DejaVuSans-107"/>
       <use x="192.382812" xlink:href="#DejaVuSans-108"/>
       <use x="220.166016" xlink:href="#DejaVuSans-97"/>
       <use x="281.445312" xlink:href="#DejaVuSans-110"/>
       <use x="344.824219" xlink:href="#DejaVuSans-100"/>
       <use x="408.300781" xlink:href="#DejaVuSans-32"/>
       <use x="440.087891" xlink:href="#DejaVuSans-76"/>
       <use x="495.800781" xlink:href="#DejaVuSans-97"/>
       <use x="557.080078" xlink:href="#DejaVuSans-107"/>
       <use x="611.365234" xlink:href="#DejaVuSans-101"/>
       <use x="672.888672" xlink:href="#DejaVuSans-44"/>
       <use x="704.675781" xlink:href="#DejaVuSans-32"/>
       <use x="736.462891" xlink:href="#DejaVuSans-79"/>
       <use x="815.173828" xlink:href="#DejaVuSans-78"/>
      </g>
     </g>
    </g>
    <g id="xtick_4">
     <g id="line2d_4">
      <g>
       <use style="stroke:#000000;stroke-width:0.8;" x="375.3" xlink:href="#m386b2a5808" y="378"/>
      </g>
     </g>
     <g id="text_4">
      <!-- Watrous, SK -->
      <g transform="translate(378.61125 457.135)rotate(-90)scale(0.12 -0.12)">
       <defs>
        <path d="M 3.328125 72.90625 
L 13.28125 72.90625 
L 28.609375 11.28125 
L 43.890625 72.90625 
L 54.984375 72.90625 
L 70.3125 11.28125 
L 85.59375 72.90625 
L 95.609375 72.90625 
L 77.296875 0 
L 64.890625 0 
L 49.515625 63.28125 
L 33.984375 0 
L 21.578125 0 
z
" id="DejaVuSans-87"/>
        <path d="M 18.3125 70.21875 
L 18.3125 54.6875 
L 36.8125 54.6875 
L 36.8125 47.703125 
L 18.3125 47.703125 
L 18.3125 18.015625 
Q 18.3125 11.328125 20.140625 9.421875 
Q 21.96875 7.515625 27.59375 7.515625 
L 36.8125 7.515625 
L 36.8125 0 
L 27.59375 0 
Q 17.1875 0 13.234375 3.875 
Q 9.28125 7.765625 9.28125 18.015625 
L 9.28125 47.703125 
L 2.6875 47.703125 
L 2.6875 54.6875 
L 9.28125 54.6875 
L 9.28125 70.21875 
z
" id="DejaVuSans-116"/>
       </defs>
       <use xlink:href="#DejaVuSans-87"/>
       <use x="92.501953" xlink:href="#DejaVuSans-97"/>
       <use x="153.78125" xlink:href="#DejaVuSans-116"/>
       <use x="192.990234" xlink:href="#DejaVuSans-114"/>
       <use x="231.853516" xlink:href="#DejaVuSans-111"/>
       <use x="293.035156" xlink:href="#DejaVuSans-117"/>
       <use x="356.414062" xlink:href="#DejaVuSans-115"/>
       <use x="408.513672" xlink:href="#DejaVuSans-44"/>
       <use x="440.300781" xlink:href="#DejaVuSans-32"/>
       <use x="472.087891" xlink:href="#DejaVuSans-83"/>
       <use x="535.564453" xlink:href="#DejaVuSans-75"/>
      </g>
     </g>
    </g>
    <g id="xtick_5">
     <g id="line2d_5">
      <g>
       <use style="stroke:#000000;stroke-width:0.8;" x="431.1" xlink:href="#m386b2a5808" y="378"/>
      </g>
     </g>
     <g id="text_5">
      <!-- Wikwemikong, ON -->
      <g transform="translate(434.41125 494.228125)rotate(-90)scale(0.12 -0.12)">
       <defs>
        <path d="M 4.203125 54.6875 
L 13.1875 54.6875 
L 24.421875 12.015625 
L 35.59375 54.6875 
L 46.1875 54.6875 
L 57.421875 12.015625 
L 68.609375 54.6875 
L 77.59375 54.6875 
L 63.28125 0 
L 52.6875 0 
L 40.921875 44.828125 
L 29.109375 0 
L 18.5 0 
z
" id="DejaVuSans-119"/>
        <path d="M 45.40625 27.984375 
Q 45.40625 37.75 41.375 43.109375 
Q 37.359375 48.484375 30.078125 48.484375 
Q 22.859375 48.484375 18.828125 43.109375 
Q 14.796875 37.75 14.796875 27.984375 
Q 14.796875 18.265625 18.828125 12.890625 
Q 22.859375 7.515625 30.078125 7.515625 
Q 37.359375 7.515625 41.375 12.890625 
Q 45.40625 18.265625 45.40625 27.984375 
z
M 54.390625 6.78125 
Q 54.390625 -7.171875 48.1875 -13.984375 
Q 42 -20.796875 29.203125 -20.796875 
Q 24.46875 -20.796875 20.265625 -20.09375 
Q 16.0625 -19.390625 12.109375 -17.921875 
L 12.109375 -9.1875 
Q 16.0625 -11.328125 19.921875 -12.34375 
Q 23.78125 -13.375 27.78125 -13.375 
Q 36.625 -13.375 41.015625 -8.765625 
Q 45.40625 -4.15625 45.40625 5.171875 
L 45.40625 9.625 
Q 42.625 4.78125 38.28125 2.390625 
Q 33.9375 0 27.875 0 
Q 17.828125 0 11.671875 7.65625 
Q 5.515625 15.328125 5.515625 27.984375 
Q 5.515625 40.671875 11.671875 48.328125 
Q 17.828125 56 27.875 56 
Q 33.9375 56 38.28125 53.609375 
Q 42.625 51.21875 45.40625 46.390625 
L 45.40625 54.6875 
L 54.390625 54.6875 
z
" id="DejaVuSans-103"/>
       </defs>
       <use xlink:href="#DejaVuSans-87"/>
       <use x="96.626953" xlink:href="#DejaVuSans-105"/>
       <use x="124.410156" xlink:href="#DejaVuSans-107"/>
       <use x="182.320312" xlink:href="#DejaVuSans-119"/>
       <use x="264.107422" xlink:href="#DejaVuSans-101"/>
       <use x="325.630859" xlink:href="#DejaVuSans-109"/>
       <use x="423.042969" xlink:href="#DejaVuSans-105"/>
       <use x="450.826172" xlink:href="#DejaVuSans-107"/>
       <use x="505.111328" xlink:href="#DejaVuSans-111"/>
       <use x="566.292969" xlink:href="#DejaVuSans-110"/>
       <use x="629.671875" xlink:href="#DejaVuSans-103"/>
       <use x="693.148438" xlink:href="#DejaVuSans-44"/>
       <use x="724.935547" xlink:href="#DejaVuSans-32"/>
       <use x="756.722656" xlink:href="#DejaVuSans-79"/>
       <use x="835.433594" xlink:href="#DejaVuSans-78"/>
      </g>
     </g>
    </g>
    <g id="xtick_6">
     <g id="line2d_6">
      <g>
       <use style="stroke:#000000;stroke-width:0.8;" x="486.9" xlink:href="#m386b2a5808" y="378"/>
      </g>
     </g>
     <g id="text_6">
      <!-- Mindemoya, ON -->
      <g transform="translate(490.21125 480.833125)rotate(-90)scale(0.12 -0.12)">
       <defs>
        <path d="M 9.8125 72.90625 
L 24.515625 72.90625 
L 43.109375 23.296875 
L 61.8125 72.90625 
L 76.515625 72.90625 
L 76.515625 0 
L 66.890625 0 
L 66.890625 64.015625 
L 48.09375 14.015625 
L 38.1875 14.015625 
L 19.390625 64.015625 
L 19.390625 0 
L 9.8125 0 
z
" id="DejaVuSans-77"/>
        <path d="M 32.171875 -5.078125 
Q 28.375 -14.84375 24.75 -17.8125 
Q 21.140625 -20.796875 15.09375 -20.796875 
L 7.90625 -20.796875 
L 7.90625 -13.28125 
L 13.1875 -13.28125 
Q 16.890625 -13.28125 18.9375 -11.515625 
Q 21 -9.765625 23.484375 -3.21875 
L 25.09375 0.875 
L 2.984375 54.6875 
L 12.5 54.6875 
L 29.59375 11.921875 
L 46.6875 54.6875 
L 56.203125 54.6875 
z
" id="DejaVuSans-121"/>
       </defs>
       <use xlink:href="#DejaVuSans-77"/>
       <use x="86.279297" xlink:href="#DejaVuSans-105"/>
       <use x="114.0625" xlink:href="#DejaVuSans-110"/>
       <use x="177.441406" xlink:href="#DejaVuSans-100"/>
       <use x="240.917969" xlink:href="#DejaVuSans-101"/>
       <use x="302.441406" xlink:href="#DejaVuSans-109"/>
       <use x="399.853516" xlink:href="#DejaVuSans-111"/>
       <use x="461.035156" xlink:href="#DejaVuSans-121"/>
       <use x="520.214844" xlink:href="#DejaVuSans-97"/>
       <use x="581.494141" xlink:href="#DejaVuSans-44"/>
       <use x="613.28125" xlink:href="#DejaVuSans-32"/>
       <use x="645.068359" xlink:href="#DejaVuSans-79"/>
       <use x="723.779297" xlink:href="#DejaVuSans-78"/>
      </g>
     </g>
    </g>
    <g id="xtick_7">
     <g id="line2d_7">
      <g>
       <use style="stroke:#000000;stroke-width:0.8;" x="542.7" xlink:href="#m386b2a5808" y="378"/>
      </g>
     </g>
     <g id="text_7">
      <!-- Timmins, ON -->
      <g transform="translate(546.01125 461.906875)rotate(-90)scale(0.12 -0.12)">
       <defs>
        <path d="M -0.296875 72.90625 
L 61.375 72.90625 
L 61.375 64.59375 
L 35.5 64.59375 
L 35.5 0 
L 25.59375 0 
L 25.59375 64.59375 
L -0.296875 64.59375 
z
" id="DejaVuSans-84"/>
       </defs>
       <use xlink:href="#DejaVuSans-84"/>
       <use x="57.958984" xlink:href="#DejaVuSans-105"/>
       <use x="85.742188" xlink:href="#DejaVuSans-109"/>
       <use x="183.154297" xlink:href="#DejaVuSans-109"/>
       <use x="280.566406" xlink:href="#DejaVuSans-105"/>
       <use x="308.349609" xlink:href="#DejaVuSans-110"/>
       <use x="371.728516" xlink:href="#DejaVuSans-115"/>
       <use x="423.828125" xlink:href="#DejaVuSans-44"/>
       <use x="455.615234" xlink:href="#DejaVuSans-32"/>
       <use x="487.402344" xlink:href="#DejaVuSans-79"/>
       <use x="566.113281" xlink:href="#DejaVuSans-78"/>
      </g>
     </g>
    </g>
    <g id="xtick_8">
     <g id="line2d_8">
      <g>
       <use style="stroke:#000000;stroke-width:0.8;" x="598.5" xlink:href="#m386b2a5808" y="378"/>
      </g>
     </g>
     <g id="text_8">
      <!-- Swift Current, SK -->
      <g transform="translate(601.81125 486.476875)rotate(-90)scale(0.12 -0.12)">
       <defs>
        <path d="M 37.109375 75.984375 
L 37.109375 68.5 
L 28.515625 68.5 
Q 23.6875 68.5 21.796875 66.546875 
Q 19.921875 64.59375 19.921875 59.515625 
L 19.921875 54.6875 
L 34.71875 54.6875 
L 34.71875 47.703125 
L 19.921875 47.703125 
L 19.921875 0 
L 10.890625 0 
L 10.890625 47.703125 
L 2.296875 47.703125 
L 2.296875 54.6875 
L 10.890625 54.6875 
L 10.890625 58.5 
Q 10.890625 67.625 15.140625 71.796875 
Q 19.390625 75.984375 28.609375 75.984375 
z
" id="DejaVuSans-102"/>
       </defs>
       <use xlink:href="#DejaVuSans-83"/>
       <use x="63.476562" xlink:href="#DejaVuSans-119"/>
       <use x="145.263672" xlink:href="#DejaVuSans-105"/>
       <use x="173.046875" xlink:href="#DejaVuSans-102"/>
       <use x="206.501953" xlink:href="#DejaVuSans-116"/>
       <use x="245.710938" xlink:href="#DejaVuSans-32"/>
       <use x="277.498047" xlink:href="#DejaVuSans-67"/>
       <use x="347.322266" xlink:href="#DejaVuSans-117"/>
       <use x="410.701172" xlink:href="#DejaVuSans-114"/>
       <use x="450.064453" xlink:href="#DejaVuSans-114"/>
       <use x="488.927734" xlink:href="#DejaVuSans-101"/>
       <use x="550.451172" xlink:href="#DejaVuSans-110"/>
       <use x="613.830078" xlink:href="#DejaVuSans-116"/>
       <use x="653.039062" xlink:href="#DejaVuSans-44"/>
       <use x="684.826172" xlink:href="#DejaVuSans-32"/>
       <use x="716.613281" xlink:href="#DejaVuSans-83"/>
       <use x="780.089844" xlink:href="#DejaVuSans-75"/>
      </g>
     </g>
    </g>
    <g id="xtick_9">
     <g id="line2d_9">
      <g>
       <use style="stroke:#000000;stroke-width:0.8;" x="654.3" xlink:href="#m386b2a5808" y="378"/>
      </g>
     </g>
     <g id="text_9">
      <!-- Redvers, SK -->
      <g transform="translate(657.61125 456.585625)rotate(-90)scale(0.12 -0.12)">
       <defs>
        <path d="M 44.390625 34.1875 
Q 47.5625 33.109375 50.5625 29.59375 
Q 53.5625 26.078125 56.59375 19.921875 
L 66.609375 0 
L 56 0 
L 46.6875 18.703125 
Q 43.0625 26.03125 39.671875 28.421875 
Q 36.28125 30.8125 30.421875 30.8125 
L 19.671875 30.8125 
L 19.671875 0 
L 9.8125 0 
L 9.8125 72.90625 
L 32.078125 72.90625 
Q 44.578125 72.90625 50.734375 67.671875 
Q 56.890625 62.453125 56.890625 51.90625 
Q 56.890625 45.015625 53.6875 40.46875 
Q 50.484375 35.9375 44.390625 34.1875 
z
M 19.671875 64.796875 
L 19.671875 38.921875 
L 32.078125 38.921875 
Q 39.203125 38.921875 42.84375 42.21875 
Q 46.484375 45.515625 46.484375 51.90625 
Q 46.484375 58.296875 42.84375 61.546875 
Q 39.203125 64.796875 32.078125 64.796875 
z
" id="DejaVuSans-82"/>
        <path d="M 2.984375 54.6875 
L 12.5 54.6875 
L 29.59375 8.796875 
L 46.6875 54.6875 
L 56.203125 54.6875 
L 35.6875 0 
L 23.484375 0 
z
" id="DejaVuSans-118"/>
       </defs>
       <use xlink:href="#DejaVuSans-82"/>
       <use x="64.982422" xlink:href="#DejaVuSans-101"/>
       <use x="126.505859" xlink:href="#DejaVuSans-100"/>
       <use x="189.982422" xlink:href="#DejaVuSans-118"/>
       <use x="249.162109" xlink:href="#DejaVuSans-101"/>
       <use x="310.685547" xlink:href="#DejaVuSans-114"/>
       <use x="351.798828" xlink:href="#DejaVuSans-115"/>
       <use x="403.898438" xlink:href="#DejaVuSans-44"/>
       <use x="435.685547" xlink:href="#DejaVuSans-32"/>
       <use x="467.472656" xlink:href="#DejaVuSans-83"/>
       <use x="530.949219" xlink:href="#DejaVuSans-75"/>
      </g>
     </g>
    </g>
    <g id="xtick_10">
     <g id="line2d_10">
      <g>
       <use style="stroke:#000000;stroke-width:0.8;" x="710.1" xlink:href="#m386b2a5808" y="378"/>
      </g>
     </g>
     <g id="text_10">
      <!-- Bengough, SK -->
      <g transform="translate(713.41125 469.125625)rotate(-90)scale(0.12 -0.12)">
       <defs>
        <path d="M 19.671875 34.8125 
L 19.671875 8.109375 
L 35.5 8.109375 
Q 43.453125 8.109375 47.28125 11.40625 
Q 51.125 14.703125 51.125 21.484375 
Q 51.125 28.328125 47.28125 31.5625 
Q 43.453125 34.8125 35.5 34.8125 
z
M 19.671875 64.796875 
L 19.671875 42.828125 
L 34.28125 42.828125 
Q 41.5 42.828125 45.03125 45.53125 
Q 48.578125 48.25 48.578125 53.8125 
Q 48.578125 59.328125 45.03125 62.0625 
Q 41.5 64.796875 34.28125 64.796875 
z
M 9.8125 72.90625 
L 35.015625 72.90625 
Q 46.296875 72.90625 52.390625 68.21875 
Q 58.5 63.53125 58.5 54.890625 
Q 58.5 48.1875 55.375 44.234375 
Q 52.25 40.28125 46.1875 39.3125 
Q 53.46875 37.75 57.5 32.78125 
Q 61.53125 27.828125 61.53125 20.40625 
Q 61.53125 10.640625 54.890625 5.3125 
Q 48.25 0 35.984375 0 
L 9.8125 0 
z
" id="DejaVuSans-66"/>
       </defs>
       <use xlink:href="#DejaVuSans-66"/>
       <use x="68.603516" xlink:href="#DejaVuSans-101"/>
       <use x="130.126953" xlink:href="#DejaVuSans-110"/>
       <use x="193.505859" xlink:href="#DejaVuSans-103"/>
       <use x="256.982422" xlink:href="#DejaVuSans-111"/>
       <use x="318.164062" xlink:href="#DejaVuSans-117"/>
       <use x="381.542969" xlink:href="#DejaVuSans-103"/>
       <use x="445.019531" xlink:href="#DejaVuSans-104"/>
       <use x="508.398438" xlink:href="#DejaVuSans-44"/>
       <use x="540.185547" xlink:href="#DejaVuSans-32"/>
       <use x="571.972656" xlink:href="#DejaVuSans-83"/>
       <use x="635.449219" xlink:href="#DejaVuSans-75"/>
      </g>
     </g>
    </g>
    <g id="xtick_11">
     <g id="line2d_11">
      <g>
       <use style="stroke:#000000;stroke-width:0.8;" x="765.9" xlink:href="#m386b2a5808" y="378"/>
      </g>
     </g>
     <g id="text_11">
      <!-- Shellbrook, SK -->
      <g transform="translate(769.21125 471.304375)rotate(-90)scale(0.12 -0.12)">
       <use xlink:href="#DejaVuSans-83"/>
       <use x="63.476562" xlink:href="#DejaVuSans-104"/>
       <use x="126.855469" xlink:href="#DejaVuSans-101"/>
       <use x="188.378906" xlink:href="#DejaVuSans-108"/>
       <use x="216.162109" xlink:href="#DejaVuSans-108"/>
       <use x="243.945312" xlink:href="#DejaVuSans-98"/>
       <use x="307.421875" xlink:href="#DejaVuSans-114"/>
       <use x="346.285156" xlink:href="#DejaVuSans-111"/>
       <use x="407.466797" xlink:href="#DejaVuSans-111"/>
       <use x="468.648438" xlink:href="#DejaVuSans-107"/>
       <use x="526.558594" xlink:href="#DejaVuSans-44"/>
       <use x="558.345703" xlink:href="#DejaVuSans-32"/>
       <use x="590.132812" xlink:href="#DejaVuSans-83"/>
       <use x="653.609375" xlink:href="#DejaVuSans-75"/>
      </g>
     </g>
    </g>
    <g id="xtick_12">
     <g id="line2d_12">
      <g>
       <use style="stroke:#000000;stroke-width:0.8;" x="821.7" xlink:href="#m386b2a5808" y="378"/>
      </g>
     </g>
     <g id="text_12">
      <!-- Hafford, SK -->
      <g transform="translate(825.01125 452.625625)rotate(-90)scale(0.12 -0.12)">
       <use xlink:href="#DejaVuSans-72"/>
       <use x="75.195312" xlink:href="#DejaVuSans-97"/>
       <use x="136.474609" xlink:href="#DejaVuSans-102"/>
       <use x="171.679688" xlink:href="#DejaVuSans-102"/>
       <use x="206.884766" xlink:href="#DejaVuSans-111"/>
       <use x="268.066406" xlink:href="#DejaVuSans-114"/>
       <use x="307.429688" xlink:href="#DejaVuSans-100"/>
       <use x="370.90625" xlink:href="#DejaVuSans-44"/>
       <use x="402.693359" xlink:href="#DejaVuSans-32"/>
       <use x="434.480469" xlink:href="#DejaVuSans-83"/>
       <use x="497.957031" xlink:href="#DejaVuSans-75"/>
      </g>
     </g>
    </g>
    <g id="xtick_13">
     <g id="line2d_13">
      <g>
       <use style="stroke:#000000;stroke-width:0.8;" x="877.5" xlink:href="#m386b2a5808" y="378"/>
      </g>
     </g>
     <g id="text_13">
      <!-- Carlyle, SK -->
      <g transform="translate(880.81125 449.935)rotate(-90)scale(0.12 -0.12)">
       <use xlink:href="#DejaVuSans-67"/>
       <use x="69.824219" xlink:href="#DejaVuSans-97"/>
       <use x="131.103516" xlink:href="#DejaVuSans-114"/>
       <use x="172.216797" xlink:href="#DejaVuSans-108"/>
       <use x="200" xlink:href="#DejaVuSans-121"/>
       <use x="259.179688" xlink:href="#DejaVuSans-108"/>
       <use x="286.962891" xlink:href="#DejaVuSans-101"/>
       <use x="348.486328" xlink:href="#DejaVuSans-44"/>
       <use x="380.273438" xlink:href="#DejaVuSans-32"/>
       <use x="412.060547" xlink:href="#DejaVuSans-83"/>
       <use x="475.537109" xlink:href="#DejaVuSans-75"/>
      </g>
     </g>
    </g>
    <g id="xtick_14">
     <g id="line2d_14">
      <g>
       <use style="stroke:#000000;stroke-width:0.8;" x="933.3" xlink:href="#m386b2a5808" y="378"/>
      </g>
     </g>
     <g id="text_14">
      <!-- Coronach, SK -->
      <g transform="translate(936.61125 465.004375)rotate(-90)scale(0.12 -0.12)">
       <defs>
        <path d="M 48.78125 52.59375 
L 48.78125 44.1875 
Q 44.96875 46.296875 41.140625 47.34375 
Q 37.3125 48.390625 33.40625 48.390625 
Q 24.65625 48.390625 19.8125 42.84375 
Q 14.984375 37.3125 14.984375 27.296875 
Q 14.984375 17.28125 19.8125 11.734375 
Q 24.65625 6.203125 33.40625 6.203125 
Q 37.3125 6.203125 41.140625 7.25 
Q 44.96875 8.296875 48.78125 10.40625 
L 48.78125 2.09375 
Q 45.015625 0.34375 40.984375 -0.53125 
Q 36.96875 -1.421875 32.421875 -1.421875 
Q 20.0625 -1.421875 12.78125 6.34375 
Q 5.515625 14.109375 5.515625 27.296875 
Q 5.515625 40.671875 12.859375 48.328125 
Q 20.21875 56 33.015625 56 
Q 37.15625 56 41.109375 55.140625 
Q 45.0625 54.296875 48.78125 52.59375 
z
" id="DejaVuSans-99"/>
       </defs>
       <use xlink:href="#DejaVuSans-67"/>
       <use x="69.824219" xlink:href="#DejaVuSans-111"/>
       <use x="131.005859" xlink:href="#DejaVuSans-114"/>
       <use x="169.869141" xlink:href="#DejaVuSans-111"/>
       <use x="231.050781" xlink:href="#DejaVuSans-110"/>
       <use x="294.429688" xlink:href="#DejaVuSans-97"/>
       <use x="355.708984" xlink:href="#DejaVuSans-99"/>
       <use x="410.689453" xlink:href="#DejaVuSans-104"/>
       <use x="474.068359" xlink:href="#DejaVuSans-44"/>
       <use x="505.855469" xlink:href="#DejaVuSans-32"/>
       <use x="537.642578" xlink:href="#DejaVuSans-83"/>
       <use x="601.119141" xlink:href="#DejaVuSans-75"/>
      </g>
     </g>
    </g>
    <g id="xtick_15">
     <g id="line2d_15">
      <g>
       <use style="stroke:#000000;stroke-width:0.8;" x="989.1" xlink:href="#m386b2a5808" y="378"/>
      </g>
     </g>
     <g id="text_15">
      <!-- Arcola, SK -->
      <g transform="translate(992.41125 445.615)rotate(-90)scale(0.12 -0.12)">
       <defs>
        <path d="M 34.1875 63.1875 
L 20.796875 26.90625 
L 47.609375 26.90625 
z
M 28.609375 72.90625 
L 39.796875 72.90625 
L 67.578125 0 
L 57.328125 0 
L 50.6875 18.703125 
L 17.828125 18.703125 
L 11.1875 0 
L 0.78125 0 
z
" id="DejaVuSans-65"/>
       </defs>
       <use xlink:href="#DejaVuSans-65"/>
       <use x="68.408203" xlink:href="#DejaVuSans-114"/>
       <use x="107.271484" xlink:href="#DejaVuSans-99"/>
       <use x="162.251953" xlink:href="#DejaVuSans-111"/>
       <use x="223.433594" xlink:href="#DejaVuSans-108"/>
       <use x="251.216797" xlink:href="#DejaVuSans-97"/>
       <use x="312.496094" xlink:href="#DejaVuSans-44"/>
       <use x="344.283203" xlink:href="#DejaVuSans-32"/>
       <use x="376.070312" xlink:href="#DejaVuSans-83"/>
       <use x="439.546875" xlink:href="#DejaVuSans-75"/>
      </g>
     </g>
    </g>
    <g id="xtick_16">
     <g id="line2d_16">
      <g>
       <use style="stroke:#000000;stroke-width:0.8;" x="1044.9" xlink:href="#m386b2a5808" y="378"/>
      </g>
     </g>
     <g id="text_16">
      <!-- Loon Lake, SK -->
      <g transform="translate(1048.21125 468.6325)rotate(-90)scale(0.12 -0.12)">
       <use xlink:href="#DejaVuSans-76"/>
       <use x="53.962891" xlink:href="#DejaVuSans-111"/>
       <use x="115.144531" xlink:href="#DejaVuSans-111"/>
       <use x="176.326172" xlink:href="#DejaVuSans-110"/>
       <use x="239.705078" xlink:href="#DejaVuSans-32"/>
       <use x="271.492188" xlink:href="#DejaVuSans-76"/>
       <use x="327.205078" xlink:href="#DejaVuSans-97"/>
       <use x="388.484375" xlink:href="#DejaVuSans-107"/>
       <use x="442.769531" xlink:href="#DejaVuSans-101"/>
       <use x="504.292969" xlink:href="#DejaVuSans-44"/>
       <use x="536.080078" xlink:href="#DejaVuSans-32"/>
       <use x="567.867188" xlink:href="#DejaVuSans-83"/>
       <use x="631.34375" xlink:href="#DejaVuSans-75"/>
      </g>
     </g>
    </g>
    <g id="xtick_17">
     <g id="line2d_17">
      <g>
       <use style="stroke:#000000;stroke-width:0.8;" x="1100.7" xlink:href="#m386b2a5808" y="378"/>
      </g>
     </g>
     <g id="text_17">
      <!-- North Battleford, SK -->
      <g transform="translate(1104.01125 505.1125)rotate(-90)scale(0.12 -0.12)">
       <use xlink:href="#DejaVuSans-78"/>
       <use x="74.804688" xlink:href="#DejaVuSans-111"/>
       <use x="135.986328" xlink:href="#DejaVuSans-114"/>
       <use x="177.099609" xlink:href="#DejaVuSans-116"/>
       <use x="216.308594" xlink:href="#DejaVuSans-104"/>
       <use x="279.6875" xlink:href="#DejaVuSans-32"/>
       <use x="311.474609" xlink:href="#DejaVuSans-66"/>
       <use x="380.078125" xlink:href="#DejaVuSans-97"/>
       <use x="441.357422" xlink:href="#DejaVuSans-116"/>
       <use x="480.566406" xlink:href="#DejaVuSans-116"/>
       <use x="519.775391" xlink:href="#DejaVuSans-108"/>
       <use x="547.558594" xlink:href="#DejaVuSans-101"/>
       <use x="609.082031" xlink:href="#DejaVuSans-102"/>
       <use x="644.287109" xlink:href="#DejaVuSans-111"/>
       <use x="705.46875" xlink:href="#DejaVuSans-114"/>
       <use x="744.832031" xlink:href="#DejaVuSans-100"/>
       <use x="808.308594" xlink:href="#DejaVuSans-44"/>
       <use x="840.095703" xlink:href="#DejaVuSans-32"/>
       <use x="871.882812" xlink:href="#DejaVuSans-83"/>
       <use x="935.359375" xlink:href="#DejaVuSans-75"/>
      </g>
     </g>
    </g>
    <g id="xtick_18">
     <g id="line2d_18">
      <g>
       <use style="stroke:#000000;stroke-width:0.8;" x="1156.5" xlink:href="#m386b2a5808" y="378"/>
      </g>
     </g>
     <g id="text_18">
      <!-- Porcupine Plain, SK -->
      <g transform="translate(1159.81125 499.740625)rotate(-90)scale(0.12 -0.12)">
       <defs>
        <path d="M 19.671875 64.796875 
L 19.671875 37.40625 
L 32.078125 37.40625 
Q 38.96875 37.40625 42.71875 40.96875 
Q 46.484375 44.53125 46.484375 51.125 
Q 46.484375 57.671875 42.71875 61.234375 
Q 38.96875 64.796875 32.078125 64.796875 
z
M 9.8125 72.90625 
L 32.078125 72.90625 
Q 44.34375 72.90625 50.609375 67.359375 
Q 56.890625 61.8125 56.890625 51.125 
Q 56.890625 40.328125 50.609375 34.8125 
Q 44.34375 29.296875 32.078125 29.296875 
L 19.671875 29.296875 
L 19.671875 0 
L 9.8125 0 
z
" id="DejaVuSans-80"/>
       </defs>
       <use xlink:href="#DejaVuSans-80"/>
       <use x="56.677734" xlink:href="#DejaVuSans-111"/>
       <use x="117.859375" xlink:href="#DejaVuSans-114"/>
       <use x="156.722656" xlink:href="#DejaVuSans-99"/>
       <use x="211.703125" xlink:href="#DejaVuSans-117"/>
       <use x="275.082031" xlink:href="#DejaVuSans-112"/>
       <use x="338.558594" xlink:href="#DejaVuSans-105"/>
       <use x="366.341797" xlink:href="#DejaVuSans-110"/>
       <use x="429.720703" xlink:href="#DejaVuSans-101"/>
       <use x="491.244141" xlink:href="#DejaVuSans-32"/>
       <use x="523.03125" xlink:href="#DejaVuSans-80"/>
       <use x="583.333984" xlink:href="#DejaVuSans-108"/>
       <use x="611.117188" xlink:href="#DejaVuSans-97"/>
       <use x="672.396484" xlink:href="#DejaVuSans-105"/>
       <use x="700.179688" xlink:href="#DejaVuSans-110"/>
       <use x="763.558594" xlink:href="#DejaVuSans-44"/>
       <use x="795.345703" xlink:href="#DejaVuSans-32"/>
       <use x="827.132812" xlink:href="#DejaVuSans-83"/>
       <use x="890.609375" xlink:href="#DejaVuSans-75"/>
      </g>
     </g>
    </g>
    <g id="xtick_19">
     <g id="line2d_19">
      <g>
       <use style="stroke:#000000;stroke-width:0.8;" x="1212.3" xlink:href="#m386b2a5808" y="378"/>
      </g>
     </g>
     <g id="text_19">
      <!-- Beauval, SK -->
      <g transform="translate(1215.61125 456.480625)rotate(-90)scale(0.12 -0.12)">
       <use xlink:href="#DejaVuSans-66"/>
       <use x="68.603516" xlink:href="#DejaVuSans-101"/>
       <use x="130.126953" xlink:href="#DejaVuSans-97"/>
       <use x="191.40625" xlink:href="#DejaVuSans-117"/>
       <use x="254.785156" xlink:href="#DejaVuSans-118"/>
       <use x="313.964844" xlink:href="#DejaVuSans-97"/>
       <use x="375.244141" xlink:href="#DejaVuSans-108"/>
       <use x="403.027344" xlink:href="#DejaVuSans-44"/>
       <use x="434.814453" xlink:href="#DejaVuSans-32"/>
       <use x="466.601562" xlink:href="#DejaVuSans-83"/>
       <use x="530.078125" xlink:href="#DejaVuSans-75"/>
      </g>
     </g>
    </g>
    <g id="xtick_20">
     <g id="line2d_20">
      <g>
       <use style="stroke:#000000;stroke-width:0.8;" x="1268.1" xlink:href="#m386b2a5808" y="378"/>
      </g>
     </g>
     <g id="text_20">
      <!-- Fort Nelson, BC -->
      <g transform="translate(1271.41125 477.184375)rotate(-90)scale(0.12 -0.12)">
       <defs>
        <path d="M 9.8125 72.90625 
L 51.703125 72.90625 
L 51.703125 64.59375 
L 19.671875 64.59375 
L 19.671875 43.109375 
L 48.578125 43.109375 
L 48.578125 34.8125 
L 19.671875 34.8125 
L 19.671875 0 
L 9.8125 0 
z
" id="DejaVuSans-70"/>
       </defs>
       <use xlink:href="#DejaVuSans-70"/>
       <use x="53.894531" xlink:href="#DejaVuSans-111"/>
       <use x="115.076172" xlink:href="#DejaVuSans-114"/>
       <use x="156.189453" xlink:href="#DejaVuSans-116"/>
       <use x="195.398438" xlink:href="#DejaVuSans-32"/>
       <use x="227.185547" xlink:href="#DejaVuSans-78"/>
       <use x="301.990234" xlink:href="#DejaVuSans-101"/>
       <use x="363.513672" xlink:href="#DejaVuSans-108"/>
       <use x="391.296875" xlink:href="#DejaVuSans-115"/>
       <use x="443.396484" xlink:href="#DejaVuSans-111"/>
       <use x="504.578125" xlink:href="#DejaVuSans-110"/>
       <use x="567.957031" xlink:href="#DejaVuSans-44"/>
       <use x="599.744141" xlink:href="#DejaVuSans-32"/>
       <use x="631.53125" xlink:href="#DejaVuSans-66"/>
       <use x="698.384766" xlink:href="#DejaVuSans-67"/>
      </g>
     </g>
    </g>
    <g id="text_21">
     <!-- City -->
     <g transform="translate(722.32 539.211875)scale(0.16 -0.16)">
      <use xlink:href="#DejaVuSans-67"/>
      <use x="69.824219" xlink:href="#DejaVuSans-105"/>
      <use x="97.607422" xlink:href="#DejaVuSans-116"/>
      <use x="136.816406" xlink:href="#DejaVuSans-121"/>
     </g>
    </g>
   </g>
   <g id="matplotlib.axis_2">
    <g id="ytick_1">
     <g id="line2d_21">
      <defs>
       <path d="M 0 0 
L -3.5 0 
" id="m43c10b6c52" style="stroke:#000000;stroke-width:0.8;"/>
      </defs>
      <g>
       <use style="stroke:#000000;stroke-width:0.8;" x="180" xlink:href="#m43c10b6c52" y="378"/>
      </g>
     </g>
     <g id="text_22">
      <!-- 0 -->
      <g transform="translate(165.365 382.559062)scale(0.12 -0.12)">
       <defs>
        <path d="M 31.78125 66.40625 
Q 24.171875 66.40625 20.328125 58.90625 
Q 16.5 51.421875 16.5 36.375 
Q 16.5 21.390625 20.328125 13.890625 
Q 24.171875 6.390625 31.78125 6.390625 
Q 39.453125 6.390625 43.28125 13.890625 
Q 47.125 21.390625 47.125 36.375 
Q 47.125 51.421875 43.28125 58.90625 
Q 39.453125 66.40625 31.78125 66.40625 
z
M 31.78125 74.21875 
Q 44.046875 74.21875 50.515625 64.515625 
Q 56.984375 54.828125 56.984375 36.375 
Q 56.984375 17.96875 50.515625 8.265625 
Q 44.046875 -1.421875 31.78125 -1.421875 
Q 19.53125 -1.421875 13.0625 8.265625 
Q 6.59375 17.96875 6.59375 36.375 
Q 6.59375 54.828125 13.0625 64.515625 
Q 19.53125 74.21875 31.78125 74.21875 
z
" id="DejaVuSans-48"/>
       </defs>
       <use xlink:href="#DejaVuSans-48"/>
      </g>
     </g>
    </g>
    <g id="ytick_2">
     <g id="line2d_22">
      <g>
       <use style="stroke:#000000;stroke-width:0.8;" x="180" xlink:href="#m43c10b6c52" y="322.471117"/>
      </g>
     </g>
     <g id="text_23">
      <!-- 10 -->
      <g transform="translate(157.73 327.03018)scale(0.12 -0.12)">
       <defs>
        <path d="M 12.40625 8.296875 
L 28.515625 8.296875 
L 28.515625 63.921875 
L 10.984375 60.40625 
L 10.984375 69.390625 
L 28.421875 72.90625 
L 38.28125 72.90625 
L 38.28125 8.296875 
L 54.390625 8.296875 
L 54.390625 0 
L 12.40625 0 
z
" id="DejaVuSans-49"/>
       </defs>
       <use xlink:href="#DejaVuSans-49"/>
       <use x="63.623047" xlink:href="#DejaVuSans-48"/>
      </g>
     </g>
    </g>
    <g id="ytick_3">
     <g id="line2d_23">
      <g>
       <use style="stroke:#000000;stroke-width:0.8;" x="180" xlink:href="#m43c10b6c52" y="266.942234"/>
      </g>
     </g>
     <g id="text_24">
      <!-- 20 -->
      <g transform="translate(157.73 271.501297)scale(0.12 -0.12)">
       <defs>
        <path d="M 19.1875 8.296875 
L 53.609375 8.296875 
L 53.609375 0 
L 7.328125 0 
L 7.328125 8.296875 
Q 12.9375 14.109375 22.625 23.890625 
Q 32.328125 33.6875 34.8125 36.53125 
Q 39.546875 41.84375 41.421875 45.53125 
Q 43.3125 49.21875 43.3125 52.78125 
Q 43.3125 58.59375 39.234375 62.25 
Q 35.15625 65.921875 28.609375 65.921875 
Q 23.96875 65.921875 18.8125 64.3125 
Q 13.671875 62.703125 7.8125 59.421875 
L 7.8125 69.390625 
Q 13.765625 71.78125 18.9375 73 
Q 24.125 74.21875 28.421875 74.21875 
Q 39.75 74.21875 46.484375 68.546875 
Q 53.21875 62.890625 53.21875 53.421875 
Q 53.21875 48.921875 51.53125 44.890625 
Q 49.859375 40.875 45.40625 35.40625 
Q 44.1875 33.984375 37.640625 27.21875 
Q 31.109375 20.453125 19.1875 8.296875 
z
" id="DejaVuSans-50"/>
       </defs>
       <use xlink:href="#DejaVuSans-50"/>
       <use x="63.623047" xlink:href="#DejaVuSans-48"/>
      </g>
     </g>
    </g>
    <g id="ytick_4">
     <g id="line2d_24">
      <g>
       <use style="stroke:#000000;stroke-width:0.8;" x="180" xlink:href="#m43c10b6c52" y="211.413351"/>
      </g>
     </g>
     <g id="text_25">
      <!-- 30 -->
      <g transform="translate(157.73 215.972414)scale(0.12 -0.12)">
       <defs>
        <path d="M 40.578125 39.3125 
Q 47.65625 37.796875 51.625 33 
Q 55.609375 28.21875 55.609375 21.1875 
Q 55.609375 10.40625 48.1875 4.484375 
Q 40.765625 -1.421875 27.09375 -1.421875 
Q 22.515625 -1.421875 17.65625 -0.515625 
Q 12.796875 0.390625 7.625 2.203125 
L 7.625 11.71875 
Q 11.71875 9.328125 16.59375 8.109375 
Q 21.484375 6.890625 26.8125 6.890625 
Q 36.078125 6.890625 40.9375 10.546875 
Q 45.796875 14.203125 45.796875 21.1875 
Q 45.796875 27.640625 41.28125 31.265625 
Q 36.765625 34.90625 28.71875 34.90625 
L 20.21875 34.90625 
L 20.21875 43.015625 
L 29.109375 43.015625 
Q 36.375 43.015625 40.234375 45.921875 
Q 44.09375 48.828125 44.09375 54.296875 
Q 44.09375 59.90625 40.109375 62.90625 
Q 36.140625 65.921875 28.71875 65.921875 
Q 24.65625 65.921875 20.015625 65.03125 
Q 15.375 64.15625 9.8125 62.3125 
L 9.8125 71.09375 
Q 15.4375 72.65625 20.34375 73.4375 
Q 25.25 74.21875 29.59375 74.21875 
Q 40.828125 74.21875 47.359375 69.109375 
Q 53.90625 64.015625 53.90625 55.328125 
Q 53.90625 49.265625 50.4375 45.09375 
Q 46.96875 40.921875 40.578125 39.3125 
z
" id="DejaVuSans-51"/>
       </defs>
       <use xlink:href="#DejaVuSans-51"/>
       <use x="63.623047" xlink:href="#DejaVuSans-48"/>
      </g>
     </g>
    </g>
    <g id="ytick_5">
     <g id="line2d_25">
      <g>
       <use style="stroke:#000000;stroke-width:0.8;" x="180" xlink:href="#m43c10b6c52" y="155.884468"/>
      </g>
     </g>
     <g id="text_26">
      <!-- 40 -->
      <g transform="translate(157.73 160.443531)scale(0.12 -0.12)">
       <defs>
        <path d="M 37.796875 64.3125 
L 12.890625 25.390625 
L 37.796875 25.390625 
z
M 35.203125 72.90625 
L 47.609375 72.90625 
L 47.609375 25.390625 
L 58.015625 25.390625 
L 58.015625 17.1875 
L 47.609375 17.1875 
L 47.609375 0 
L 37.796875 0 
L 37.796875 17.1875 
L 4.890625 17.1875 
L 4.890625 26.703125 
z
" id="DejaVuSans-52"/>
       </defs>
       <use xlink:href="#DejaVuSans-52"/>
       <use x="63.623047" xlink:href="#DejaVuSans-48"/>
      </g>
     </g>
    </g>
    <g id="ytick_6">
     <g id="line2d_26">
      <g>
       <use style="stroke:#000000;stroke-width:0.8;" x="180" xlink:href="#m43c10b6c52" y="100.355585"/>
      </g>
     </g>
     <g id="text_27">
      <!-- 50 -->
      <g transform="translate(157.73 104.914648)scale(0.12 -0.12)">
       <defs>
        <path d="M 10.796875 72.90625 
L 49.515625 72.90625 
L 49.515625 64.59375 
L 19.828125 64.59375 
L 19.828125 46.734375 
Q 21.96875 47.46875 24.109375 47.828125 
Q 26.265625 48.1875 28.421875 48.1875 
Q 40.625 48.1875 47.75 41.5 
Q 54.890625 34.8125 54.890625 23.390625 
Q 54.890625 11.625 47.5625 5.09375 
Q 40.234375 -1.421875 26.90625 -1.421875 
Q 22.3125 -1.421875 17.546875 -0.640625 
Q 12.796875 0.140625 7.71875 1.703125 
L 7.71875 11.625 
Q 12.109375 9.234375 16.796875 8.0625 
Q 21.484375 6.890625 26.703125 6.890625 
Q 35.15625 6.890625 40.078125 11.328125 
Q 45.015625 15.765625 45.015625 23.390625 
Q 45.015625 31 40.078125 35.4375 
Q 35.15625 39.890625 26.703125 39.890625 
Q 22.75 39.890625 18.8125 39.015625 
Q 14.890625 38.140625 10.796875 36.28125 
z
" id="DejaVuSans-53"/>
       </defs>
       <use xlink:href="#DejaVuSans-53"/>
       <use x="63.623047" xlink:href="#DejaVuSans-48"/>
      </g>
     </g>
    </g>
    <g id="text_28">
     <!-- Hourly Wage (CAD) -->
     <g transform="translate(150.4025 291.9975)rotate(-90)scale(0.16 -0.16)">
      <defs>
       <path d="M 31 75.875 
Q 24.46875 64.65625 21.28125 53.65625 
Q 18.109375 42.671875 18.109375 31.390625 
Q 18.109375 20.125 21.3125 9.0625 
Q 24.515625 -2 31 -13.1875 
L 23.1875 -13.1875 
Q 15.875 -1.703125 12.234375 9.375 
Q 8.59375 20.453125 8.59375 31.390625 
Q 8.59375 42.28125 12.203125 53.3125 
Q 15.828125 64.359375 23.1875 75.875 
z
" id="DejaVuSans-40"/>
       <path d="M 19.671875 64.796875 
L 19.671875 8.109375 
L 31.59375 8.109375 
Q 46.6875 8.109375 53.6875 14.9375 
Q 60.6875 21.78125 60.6875 36.53125 
Q 60.6875 51.171875 53.6875 57.984375 
Q 46.6875 64.796875 31.59375 64.796875 
z
M 9.8125 72.90625 
L 30.078125 72.90625 
Q 51.265625 72.90625 61.171875 64.09375 
Q 71.09375 55.28125 71.09375 36.53125 
Q 71.09375 17.671875 61.125 8.828125 
Q 51.171875 0 30.078125 0 
L 9.8125 0 
z
" id="DejaVuSans-68"/>
       <path d="M 8.015625 75.875 
L 15.828125 75.875 
Q 23.140625 64.359375 26.78125 53.3125 
Q 30.421875 42.28125 30.421875 31.390625 
Q 30.421875 20.453125 26.78125 9.375 
Q 23.140625 -1.703125 15.828125 -13.1875 
L 8.015625 -13.1875 
Q 14.5 -2 17.703125 9.0625 
Q 20.90625 20.125 20.90625 31.390625 
Q 20.90625 42.671875 17.703125 53.65625 
Q 14.5 64.65625 8.015625 75.875 
z
" id="DejaVuSans-41"/>
      </defs>
      <use xlink:href="#DejaVuSans-72"/>
      <use x="75.195312" xlink:href="#DejaVuSans-111"/>
      <use x="136.376953" xlink:href="#DejaVuSans-117"/>
      <use x="199.755859" xlink:href="#DejaVuSans-114"/>
      <use x="240.869141" xlink:href="#DejaVuSans-108"/>
      <use x="268.652344" xlink:href="#DejaVuSans-121"/>
      <use x="327.832031" xlink:href="#DejaVuSans-32"/>
      <use x="359.619141" xlink:href="#DejaVuSans-87"/>
      <use x="452.121094" xlink:href="#DejaVuSans-97"/>
      <use x="513.400391" xlink:href="#DejaVuSans-103"/>
      <use x="576.876953" xlink:href="#DejaVuSans-101"/>
      <use x="638.400391" xlink:href="#DejaVuSans-32"/>
      <use x="670.1875" xlink:href="#DejaVuSans-40"/>
      <use x="709.201172" xlink:href="#DejaVuSans-67"/>
      <use x="779.025391" xlink:href="#DejaVuSans-65"/>
      <use x="847.433594" xlink:href="#DejaVuSans-68"/>
      <use x="924.435547" xlink:href="#DejaVuSans-41"/>
     </g>
    </g>
   </g>
   <g id="patch_23">
    <path d="M 180 378 
L 180 51.84 
" style="fill:none;stroke:#000000;stroke-linecap:square;stroke-linejoin:miter;stroke-width:0.8;"/>
   </g>
   <g id="patch_24">
    <path d="M 1296 378 
L 1296 51.84 
" style="fill:none;stroke:#000000;stroke-linecap:square;stroke-linejoin:miter;stroke-width:0.8;"/>
   </g>
   <g id="patch_25">
    <path d="M 180 378 
L 1296 378 
" style="fill:none;stroke:#000000;stroke-linecap:square;stroke-linejoin:miter;stroke-width:0.8;"/>
   </g>
   <g id="patch_26">
    <path d="M 180 51.84 
L 1296 51.84 
" style="fill:none;stroke:#000000;stroke-linecap:square;stroke-linejoin:miter;stroke-width:0.8;"/>
   </g>
   <g id="text_29">
    <!-- Highest Hourly Wage For Health Professions per City -->
    <g transform="translate(475.757812 45.84)scale(0.2 -0.2)">
     <use xlink:href="#DejaVuSans-72"/>
     <use x="75.195312" xlink:href="#DejaVuSans-105"/>
     <use x="102.978516" xlink:href="#DejaVuSans-103"/>
     <use x="166.455078" xlink:href="#DejaVuSans-104"/>
     <use x="229.833984" xlink:href="#DejaVuSans-101"/>
     <use x="291.357422" xlink:href="#DejaVuSans-115"/>
     <use x="343.457031" xlink:href="#DejaVuSans-116"/>
     <use x="382.666016" xlink:href="#DejaVuSans-32"/>
     <use x="414.453125" xlink:href="#DejaVuSans-72"/>
     <use x="489.648438" xlink:href="#DejaVuSans-111"/>
     <use x="550.830078" xlink:href="#DejaVuSans-117"/>
     <use x="614.208984" xlink:href="#DejaVuSans-114"/>
     <use x="655.322266" xlink:href="#DejaVuSans-108"/>
     <use x="683.105469" xlink:href="#DejaVuSans-121"/>
     <use x="742.285156" xlink:href="#DejaVuSans-32"/>
     <use x="774.072266" xlink:href="#DejaVuSans-87"/>
     <use x="866.574219" xlink:href="#DejaVuSans-97"/>
     <use x="927.853516" xlink:href="#DejaVuSans-103"/>
     <use x="991.330078" xlink:href="#DejaVuSans-101"/>
     <use x="1052.853516" xlink:href="#DejaVuSans-32"/>
     <use x="1084.640625" xlink:href="#DejaVuSans-70"/>
     <use x="1138.535156" xlink:href="#DejaVuSans-111"/>
     <use x="1199.716797" xlink:href="#DejaVuSans-114"/>
     <use x="1240.830078" xlink:href="#DejaVuSans-32"/>
     <use x="1272.617188" xlink:href="#DejaVuSans-72"/>
     <use x="1347.8125" xlink:href="#DejaVuSans-101"/>
     <use x="1409.335938" xlink:href="#DejaVuSans-97"/>
     <use x="1470.615234" xlink:href="#DejaVuSans-108"/>
     <use x="1498.398438" xlink:href="#DejaVuSans-116"/>
     <use x="1537.607422" xlink:href="#DejaVuSans-104"/>
     <use x="1600.986328" xlink:href="#DejaVuSans-32"/>
     <use x="1632.773438" xlink:href="#DejaVuSans-80"/>
     <use x="1691.326172" xlink:href="#DejaVuSans-114"/>
     <use x="1730.189453" xlink:href="#DejaVuSans-111"/>
     <use x="1791.371094" xlink:href="#DejaVuSans-102"/>
     <use x="1826.576172" xlink:href="#DejaVuSans-101"/>
     <use x="1888.099609" xlink:href="#DejaVuSans-115"/>
     <use x="1940.199219" xlink:href="#DejaVuSans-115"/>
     <use x="1992.298828" xlink:href="#DejaVuSans-105"/>
     <use x="2020.082031" xlink:href="#DejaVuSans-111"/>
     <use x="2081.263672" xlink:href="#DejaVuSans-110"/>
     <use x="2144.642578" xlink:href="#DejaVuSans-115"/>
     <use x="2196.742188" xlink:href="#DejaVuSans-32"/>
     <use x="2228.529297" xlink:href="#DejaVuSans-112"/>
     <use x="2292.005859" xlink:href="#DejaVuSans-101"/>
     <use x="2353.529297" xlink:href="#DejaVuSans-114"/>
     <use x="2394.642578" xlink:href="#DejaVuSans-32"/>
     <use x="2426.429688" xlink:href="#DejaVuSans-67"/>
     <use x="2496.253906" xlink:href="#DejaVuSans-105"/>
     <use x="2524.037109" xlink:href="#DejaVuSans-116"/>
     <use x="2563.246094" xlink:href="#DejaVuSans-121"/>
    </g>
   </g>
   <g id="legend_1">
    <g id="patch_27">
     <path d="M 1198.307812 74.518125 
L 1289 74.518125 
Q 1291 74.518125 1291 72.518125 
L 1291 58.84 
Q 1291 56.84 1289 56.84 
L 1198.307812 56.84 
Q 1196.307812 56.84 1196.307812 58.84 
L 1196.307812 72.518125 
Q 1196.307812 74.518125 1198.307812 74.518125 
z
" style="fill:#ffffff;opacity:0.8;stroke:#cccccc;stroke-linejoin:miter;"/>
    </g>
    <g id="patch_28">
     <path d="M 1200.307812 68.438438 
L 1220.307812 68.438438 
L 1220.307812 61.438438 
L 1200.307812 61.438438 
z
" style="fill:#1f77b4;"/>
    </g>
    <g id="text_30">
     <!-- AveragePay -->
     <g transform="translate(1228.307812 68.438438)scale(0.1 -0.1)">
      <use xlink:href="#DejaVuSans-65"/>
      <use x="62.533203" xlink:href="#DejaVuSans-118"/>
      <use x="121.712891" xlink:href="#DejaVuSans-101"/>
      <use x="183.236328" xlink:href="#DejaVuSans-114"/>
      <use x="224.349609" xlink:href="#DejaVuSans-97"/>
      <use x="285.628906" xlink:href="#DejaVuSans-103"/>
      <use x="349.105469" xlink:href="#DejaVuSans-101"/>
      <use x="410.628906" xlink:href="#DejaVuSans-80"/>
      <use x="466.431641" xlink:href="#DejaVuSans-97"/>
      <use x="527.710938" xlink:href="#DejaVuSans-121"/>
     </g>
    </g>
   </g>
  </g>
 </g>
 <defs>
  <clipPath id="p654050d7ad">
   <rect height="326.16" width="1116" x="180" y="51.84"/>
  </clipPath>
 </defs>
</svg>
